<svg width="265" height="108" viewBox="0 0 265 108" fill="none" xmlns="http://www.w3.org/2000/svg">
<g clip-path="url(#clip0)">
<path opacity="0.1" d="M53.9549 -0.0813513C52.4189 0.621545 51.6723 1.891 50.8731 3.07052C44.4496 12.5541 31.3144 18.5891 16.9076 21.8856C10.8076 23.2836 3.32897 25.301 3.87188 30.108C4.1628 32.6904 6.83575 35.0765 8.72258 37.5188C12.6744 42.6157 13.2833 48.591 10.3167 53.1479C6.94168 58.3341 -0.845206 62.25 0.420964 68.4267C1.20154 72.2378 5.32466 75.6568 9.32952 78.6922C15.5754 83.4257 22.0709 87.9887 28.8158 92.3798C33.3373 95.3249 38.174 98.2779 43.7602 99.6556C48.6804 100.871 53.7028 100.745 58.5726 100.602C62.8278 100.483 67.1955 100.337 70.8076 99.1028C73.1538 98.2949 75.1417 97.043 77.7031 96.5115C83.7276 95.2617 90.7469 98.2281 97.0682 100.542C112.116 106.022 128.621 108.43 143.657 107.339C166.926 105.687 185.93 96.2536 208.823 93.734C218.67 92.6498 229.166 92.8573 238.45 90.7811C243.685 89.5867 248.305 87.772 252.103 85.418C259.601 80.8224 264.316 73.9914 264.44 66.4056C264.564 58.8194 259.911 50.5491 251.529 44.5719C242.553 38.1729 230.474 34.892 219.887 30.0069C208.956 24.9621 199.591 18.1802 188.8 12.9579C180.067 8.73776 170.341 5.57641 160.336 3.70594C150.332 1.83546 140.303 1.30329 130.984 2.14847C118.182 3.29925 104.467 9.24223 90.7296 7.14064C80.9523 5.6482 62.3755 -3.93014 53.9549 -0.0813513Z" fill="#F9A826"/>
</g>
<defs>
<clipPath id="clip0">
<rect width="265" height="108" fill="white"/>
</clipPath>
</defs>
</svg>
