<svg width="1395" height="752" viewBox="0 0 1395 752" fill="none" xmlns="http://www.w3.org/2000/svg">
<rect x="-1" width="1396" height="751.106" fill="#3F3D56"/>
<path d="M1225.06 546.091C1209.26 527.2 1191.95 509.366 1173.27 492.731L1172.42 492L1171.13 493.104C1160.57 502.36 1067.96 585.477 1068 652.544C1068.04 725.597 1117.46 744.603 1159.45 747.553L1159.45 747.56L1160.66 747.637C1163.26 747.803 1165.92 747.912 1168.57 747.962L1168.57 747.962L1169.81 747.985L1169.81 747.975C1170.66 747.986 1171.52 748 1172.37 748H1172.55C1203.81 747.986 1228.65 740.83 1246.38 726.731C1266.71 710.552 1277.02 685.561 1277 652.453C1276.98 616.007 1248.75 574.497 1225.06 546.091ZM1192.07 638.634L1168.58 677.346L1167.49 739.729L1177.17 727.546L1167.47 741.066L1167.38 745.705C1167.1 745.698 1166.81 745.688 1166.52 745.68C1165.28 745.641 1164.04 745.59 1162.81 745.527C1162.56 745.513 1162.3 745.501 1162.04 745.486L1166.01 676.592L1166.02 676.533L1166 676.276L1166.45 668.974L1156.66 655.363L1164.1 664.708L1164.18 665.792L1166.64 665.781L1169.69 612.896L1169.7 612.587L1150.4 580.203L1169.81 606.898L1169.25 639.291L1180.33 622.6L1169.21 641.841L1168.67 672.435L1192.07 638.634ZM1070.47 652.543C1070.45 624.648 1086.75 590.478 1118.9 550.982C1134.68 531.764 1151.99 513.598 1170.68 496.625L1167.72 599.96L1136.96 557.666L1134.84 558.799L1167.2 613.09L1164.43 661.304L1128.22 615.83L1126.18 617.079L1163.95 669.577L1163.6 675.551L1163.5 675.708L1163.55 676.535L1159.58 745.337C1118.64 742.44 1070.51 723.859 1070.47 652.543ZM1187.6 565.008L1170.56 586.927L1170.67 582.973L1187.6 565.008ZM1172.55 745.78C1171.64 745.778 1170.75 745.765 1169.85 745.754L1169.92 741.738L1207.57 689.303L1205.53 688.054L1170.08 732.65L1171.04 677.929L1214.87 605.71L1212.74 604.591L1171.28 664.47L1171.66 642.401L1201.83 590.215L1199.68 589.134L1171.86 631.028L1172.61 588.164L1204.85 546.703L1202.9 545.349L1172.77 577.315L1173.23 495.804C1186.47 507.621 1274.5 588.613 1274.53 652.453C1274.57 729.552 1219.1 745.759 1172.55 745.78Z" fill="#ECB706"/>
<path d="M307.283 646.602C307.321 724.026 261.758 751.078 205.542 751.106C204.236 751.106 202.937 751.092 201.643 751.063C199.038 751.008 196.46 750.889 193.909 750.708C143.17 747.104 103.735 718.706 103.7 646.702C103.664 572.187 197.92 478.104 204.989 471.147C204.995 471.147 204.995 471.147 205.001 471.141C205.27 470.876 205.407 470.743 205.407 470.743C205.407 470.743 307.246 569.185 307.283 646.602Z" fill="#ECB706"/>
<path d="M201.831 739.264L239.035 686.713L201.741 745.031L201.644 751.063C199.038 751.008 196.46 750.889 193.909 750.707L197.882 673.25L197.851 672.651L197.92 672.537L198.297 665.218L160.852 606.792L198.407 659.735L198.501 661.287L201.503 602.765L169.443 542.386L201.892 592.48L204.989 471.147L205.001 470.744L205.001 471.141L204.522 566.825L236.386 528.876L204.389 575.065L203.571 627.466L233.329 577.165L203.456 635.17L203.001 664.307L246.188 594.288L202.837 674.472L201.831 739.264Z" fill="#3F3D56"/>
<path d="M71.7083 187.54C72.4729 170.823 78.8149 155.079 89.4264 143.556C100.038 132.033 114.11 125.608 128.739 125.608C130.475 125.608 132.189 125.712 133.885 125.885C140.557 112.752 150.122 101.852 161.628 94.2732C173.133 86.6942 186.174 82.7018 199.45 82.6947C212.725 82.6875 225.77 86.6658 237.281 94.2322C248.792 101.799 258.367 112.688 265.05 125.814C266.481 125.691 267.921 125.608 269.38 125.608C284.01 125.608 298.081 132.033 308.693 143.556C319.304 155.079 325.646 170.823 326.411 187.54" fill="#FEF6E9"/>
<path d="M83.6031 182.513C84.3677 165.796 90.7097 150.053 101.321 138.529C111.933 127.006 126.004 120.582 140.634 120.581C142.37 120.581 144.084 120.685 145.78 120.858C152.451 107.725 162.017 96.8253 173.522 89.2464C185.027 81.6675 198.069 77.6751 211.344 77.6679C224.62 77.6607 237.665 81.639 249.176 89.2055C260.687 96.7719 270.262 107.662 276.944 120.787C278.375 120.664 279.816 120.581 281.275 120.581C295.904 120.582 309.976 127.006 320.587 138.529C331.199 150.053 337.541 165.796 338.306 182.513" stroke="#3F3D56" stroke-miterlimit="10"/>
<path d="M580.667 242.234C581.203 228.832 585.654 216.21 593.102 206.971C600.549 197.733 610.425 192.582 620.692 192.582C621.91 192.582 623.113 192.665 624.304 192.804C628.986 182.275 635.699 173.536 643.774 167.46C651.848 161.384 661.001 158.183 670.318 158.177C679.635 158.172 688.79 161.361 696.869 167.427C704.948 173.494 711.667 182.224 716.357 192.747C717.361 192.649 718.373 192.582 719.396 192.582C729.663 192.582 739.539 197.733 746.987 206.971C754.434 216.21 758.885 228.832 759.421 242.234" fill="#FEF6E9"/>
<path d="M589.015 242.234C589.551 228.832 594.002 216.21 601.45 206.971C608.897 197.733 618.773 192.582 629.04 192.582C630.258 192.582 631.461 192.665 632.651 192.804C637.334 182.275 644.047 173.536 652.122 167.46C660.196 161.384 669.349 158.183 678.666 158.177C687.983 158.172 697.138 161.361 705.217 167.427C713.296 173.494 720.015 182.224 724.705 192.747C725.709 192.649 726.721 192.582 727.744 192.582C738.011 192.582 747.887 197.733 755.335 206.971C762.782 216.21 767.233 228.832 767.769 242.234" stroke="#3F3D56" stroke-miterlimit="10"/>
<path d="M1126.46 143.023C1127.06 126.162 1132.02 110.283 1140.32 98.6598C1148.61 87.0371 1159.61 80.5574 1171.05 80.5571C1172.41 80.5571 1173.75 80.6615 1175.07 80.8365C1180.29 67.5905 1187.77 56.5964 1196.76 48.9522C1205.76 41.3079 1215.96 37.2811 1226.33 37.2739C1236.71 37.2666 1246.91 41.2792 1255.91 48.9109C1264.91 56.5426 1272.4 67.5263 1277.62 80.765C1278.74 80.6409 1279.87 80.5571 1281.01 80.5571C1292.44 80.5574 1303.45 87.0371 1311.74 98.6598C1320.04 110.283 1325 126.162 1325.59 143.023" fill="#FEF6E9"/>
<path d="M1135.76 137.953C1136.36 121.092 1141.32 105.212 1149.62 93.5897C1157.91 81.967 1168.91 75.4873 1180.35 75.487C1181.71 75.487 1183.05 75.5915 1184.37 75.7665C1189.59 62.5205 1197.07 51.5263 1206.06 43.8821C1215.06 36.2378 1225.25 32.211 1235.63 32.2038C1246.01 32.1965 1256.21 36.2091 1265.21 43.8408C1274.21 51.4725 1281.7 62.4562 1286.92 75.6949C1288.04 75.5708 1289.17 75.487 1290.31 75.487C1301.74 75.4873 1312.75 81.967 1321.04 93.5897C1329.34 105.212 1334.3 121.092 1334.89 137.953" stroke="#3F3D56" stroke-miterlimit="10"/>
</svg>
