<svg width="315" height="317" viewBox="0 0 315 317" fill="none" xmlns="http://www.w3.org/2000/svg">
<g clip-path="url(#clip0)">
<path d="M225.252 70.1636H223.554V25.7218C223.554 22.3439 222.858 18.9992 221.505 15.8785C220.152 12.7577 218.169 9.92218 215.669 7.5337C213.169 5.14521 210.201 3.25056 206.934 1.95793C203.668 0.665294 200.167 -1.25231e-05 196.631 1.76793e-10H98.078C94.5424 -8.16716e-06 91.0414 0.665301 87.7749 1.95794C84.5085 3.25057 81.5405 5.14522 79.0405 7.53371C76.5404 9.9222 74.5573 12.7577 73.2043 15.8785C71.8513 18.9992 71.1549 22.3439 71.1549 25.7218V269.533C71.1549 272.911 71.8513 276.256 73.2043 279.377C74.5573 282.497 76.5404 285.333 79.0405 287.721C81.5405 290.11 84.5085 292.004 87.775 293.297C91.0414 294.59 94.5424 295.255 98.078 295.255H196.631C200.167 295.255 203.668 294.59 206.934 293.297C210.201 292.004 213.169 290.11 215.669 287.721C218.169 285.333 220.152 282.497 221.505 279.377C222.858 276.256 223.554 272.911 223.554 269.533V101.798H225.252V70.1636Z" fill="#3F3D56"/>
<path d="M311.707 283.133H0.105957V283.962H311.707V283.133Z" fill="#3F3D56"/>
<path opacity="0.2" d="M217.824 25.9025V269.355C217.827 271.879 217.308 274.378 216.299 276.709C215.289 279.041 213.808 281.159 211.941 282.944C210.073 284.728 207.856 286.143 205.415 287.107C202.975 288.072 200.359 288.567 197.718 288.565H98.6913C96.0504 288.567 93.435 288.071 90.9947 287.106C88.5544 286.141 86.3372 284.727 84.4697 282.943C82.6023 281.158 81.1213 279.04 80.1116 276.709C79.1018 274.377 78.583 271.879 78.5848 269.355V25.9025C78.583 23.3794 79.1018 20.8807 80.1116 18.5493C81.1213 16.2179 82.6023 14.0996 84.4697 12.3155C86.3372 10.5313 88.5544 9.11646 90.9947 8.15173C93.435 7.18699 96.0504 6.69134 98.6913 6.69312H110.704C110.112 8.07879 109.887 9.5822 110.046 11.0709C110.206 12.5596 110.747 13.9879 111.621 15.2299C112.495 16.4719 113.675 17.4895 115.057 18.1931C116.44 18.8966 117.982 19.2646 119.549 19.2644H176.01C177.576 19.2646 179.119 18.8966 180.501 18.1931C181.884 17.4895 183.064 16.4719 183.938 15.2299C184.811 13.9879 185.352 12.5596 185.512 11.0709C185.672 9.5822 185.446 8.07879 184.855 6.69312H197.718C200.359 6.69086 202.975 7.18618 205.415 8.15074C207.856 9.1153 210.073 10.5302 211.941 12.3144C213.808 14.0986 215.289 16.2171 216.299 18.5487C217.308 20.8803 217.827 23.3793 217.824 25.9025Z" fill="black"/>
<path d="M31.057 283.918L30.5912 283.751C30.4889 283.714 20.3021 279.985 15.5302 271.531C10.758 263.075 13.0947 252.895 13.1189 252.794L13.2289 252.33L13.6944 252.497C13.7968 252.534 23.9833 256.262 28.7555 264.717C33.5276 273.172 31.1909 283.353 31.1667 283.454L31.057 283.918ZM16.2943 271.137C20.3288 278.286 28.3787 281.95 30.4183 282.786C30.8061 280.698 32.0222 272.253 27.9913 265.111C23.9609 257.97 15.9078 254.3 13.8673 253.461C13.4793 255.551 12.2636 263.996 16.2943 271.137Z" fill="#3F3D56"/>
<path d="M19.177 268.565C27.7528 273.494 31.0556 283.285 31.0556 283.285C31.0556 283.285 20.4544 285.084 11.8786 280.155C3.30281 275.225 0 265.435 0 265.435C0 265.435 10.6013 263.636 19.177 268.565Z" fill="#ECB706"/>
<path d="M103.569 6.69313V288.565H98.6913C97.4154 288.567 96.1424 288.451 94.8896 288.221V7.03727C96.1424 6.80649 97.4154 6.69125 98.6913 6.69314L103.569 6.69313Z" fill="#3F3D56"/>
<path d="M150.44 19.2644H141.76V288.565H150.44V19.2644Z" fill="#3F3D56"/>
<path d="M204.688 7.87895V287.379C202.456 288.166 200.096 288.568 197.718 288.565H196.008V6.69313H197.718C200.096 6.6902 202.456 7.09173 204.688 7.87895Z" fill="#3F3D56"/>
<path d="M217.824 53.6282H78.5848V61.9206H217.824V53.6282Z" fill="#3F3D56"/>
<path d="M217.824 147.747H78.5848V156.039H217.824V147.747Z" fill="#3F3D56"/>
<path d="M213.367 194.185H143.496V202.477H213.367V194.185Z" fill="#3F3D56"/>
<path d="M217.824 88.8708H141.76V97.1633H217.824V88.8708Z" fill="#3F3D56"/>
<path d="M148.031 61.3651L147.024 61.9207L141.76 64.823L103.569 85.8899L94.8897 90.6788L78.585 99.6719V90.0942L94.8897 81.101L103.569 76.3163L129.665 61.9207L141.76 55.2494L143.691 54.1838L148.031 61.3651Z" fill="#3F3D56"/>
<path d="M217.824 238.549H78.5848V246.841H217.824V238.549Z" fill="#3F3D56"/>
<path d="M248.086 89.2854C248.086 115.619 198.178 174.283 198.178 174.283C198.178 174.283 148.27 115.619 148.27 89.2854C148.27 76.6395 153.528 64.5116 162.887 55.5696C172.247 46.6276 184.941 41.604 198.178 41.604C211.414 41.604 224.109 46.6276 233.468 55.5696C242.828 64.5116 248.086 76.6395 248.086 89.2854Z" fill="#ECB706"/>
<path opacity="0.2" d="M198.178 115.407C214.476 115.407 227.689 102.784 227.689 87.2123C227.689 71.641 214.476 59.0181 198.178 59.0181C181.879 59.0181 168.667 71.641 168.667 87.2123C168.667 102.784 181.879 115.407 198.178 115.407Z" fill="black"/>
<path d="M197.208 98.3422C203.28 98.3422 208.202 93.6395 208.202 87.8384C208.202 82.0374 203.28 77.3347 197.208 77.3347C191.136 77.3347 186.213 82.0374 186.213 87.8384C186.213 93.6395 191.136 98.3422 197.208 98.3422Z" fill="#ECB706"/>
<path d="M214.372 118.309C214.831 116.029 214.758 113.681 214.157 111.431C213.556 109.182 212.441 107.087 210.894 105.297C209.347 103.507 207.405 102.065 205.206 101.076C203.008 100.086 200.608 99.5732 198.178 99.5732C195.748 99.5732 193.348 100.086 191.149 101.076C188.951 102.065 187.009 103.507 185.462 105.297C183.914 107.087 182.8 109.182 182.199 111.431C181.598 113.681 181.524 116.029 181.984 118.309H214.372Z" fill="#ECB706"/>
<path d="M250.186 50.9098C250.186 50.9098 242.345 48.2343 237.305 58.9362C232.264 69.6382 224.423 81.4103 224.423 81.4103L228.903 82.4804C228.903 82.4804 230.023 74.9891 232.824 73.9189L231.704 83.5506C231.704 83.5506 265.309 94.7876 280.431 82.4804L279.871 78.7348C279.871 78.7348 282.111 79.2699 282.111 82.4804L283.792 80.8752C283.792 80.8752 282.111 77.6646 277.071 73.3838C273.762 70.5741 272.625 65.2287 272.234 61.8866C271.942 59.096 270.773 56.455 268.882 54.31C265.532 50.601 259.428 46.6588 250.186 50.9098Z" fill="#2F2E41"/>
<path d="M297.777 111.468C297.777 111.468 312.533 123.492 314.703 130.54C316.873 137.589 306.457 138.418 306.457 138.418L283.89 140.491C283.89 140.491 283.456 150.442 279.55 151.686C275.644 152.93 278.757 135.231 278.757 135.231L300.815 129.296L290.833 119.346L297.777 111.468Z" fill="#FBBEBE"/>
<path d="M228.774 123.906L227.038 145.881L217.49 183.197C217.49 183.197 208.81 200.196 216.188 200.611C223.566 201.026 223.132 184.441 223.132 184.441L237.019 149.198L238.321 125.15L228.774 123.906Z" fill="#FBBEBE"/>
<path d="M236.586 283.121V299.291L247.001 296.804L243.963 281.877L236.586 283.121Z" fill="#FBBEBE"/>
<path d="M292.136 283.121V299.291L302.551 296.804L299.513 281.877L292.136 283.121Z" fill="#FBBEBE"/>
<path d="M253.077 85.3466C260.986 85.3466 267.398 79.2208 267.398 71.6642C267.398 64.1075 260.986 57.9817 253.077 57.9817C245.167 57.9817 238.755 64.1075 238.755 71.6642C238.755 79.2208 245.167 85.3466 253.077 85.3466Z" fill="#FBBEBE"/>
<path d="M246.567 78.2981C246.567 78.2981 251.775 96.1268 243.529 100.688C235.284 105.248 264.36 108.565 272.172 94.8829C272.172 94.8829 258.285 90.3221 262.19 78.2981H246.567Z" fill="#FBBEBE"/>
<path d="M236.585 102.761L233.982 101.931C233.982 101.931 228.774 104.005 228.774 107.736C228.774 111.468 227.906 126.394 227.906 126.394L239.623 127.638L236.585 102.761Z" fill="#575A89"/>
<path d="M238.321 147.104C238.321 147.104 224 164.539 224 185.685C224 206.83 227.472 283.535 227.472 283.535C227.472 283.535 240.491 289.34 248.303 282.291L255.247 195.221L282.588 285.194C282.588 285.194 295.607 287.681 301.683 283.535L289.965 225.488C289.965 225.488 289.532 156.661 276.512 151.686C263.492 146.71 238.321 147.104 238.321 147.104Z" fill="#2F2E41"/>
<path d="M247.869 294.316C247.869 294.316 236.585 288.511 235.717 296.389C234.849 304.266 234.415 309.242 234.415 309.242C234.415 309.242 233.114 318.778 245.265 316.705C257.417 314.632 253.077 308.827 253.077 308.827C253.077 308.827 248.737 302.193 248.737 300.535C248.737 298.876 247.869 294.316 247.869 294.316Z" fill="#2F2E41"/>
<path d="M291.025 294.127C291.025 294.127 301.294 286.802 303.364 294.472C305.433 302.143 306.627 307.004 306.627 307.004C306.627 307.004 309.381 316.254 297.042 315.908C284.704 315.562 288.104 309.212 288.104 309.212C288.104 309.212 291.377 302.041 291.123 300.4C290.868 298.76 291.025 294.127 291.025 294.127Z" fill="#2F2E41"/>
<path d="M278.248 96.9559C278.248 96.9559 283.89 94.0536 289.532 100.273L300.815 112.712L292.135 121.833L275.644 112.297L278.248 96.9559Z" fill="#575A89"/>
<path d="M237.601 71.7509C242.671 68.2455 246.775 64.2079 249.49 59.405C249.49 59.405 258.794 69.2818 264.48 69.7756C270.166 70.2694 264.997 57.9235 264.997 57.9235L254.659 55.4543L244.838 56.442L237.084 61.3804L237.601 71.7509Z" fill="#2F2E41"/>
<path d="M270.002 94.0537C270.002 94.0537 263.929 103.228 245.7 98.8481L235.356 101.57L233.982 101.932C233.982 101.932 235.283 126.809 238.755 131.37C242.227 135.93 241.359 138.418 240.491 138.833C239.623 139.247 237.453 138.418 238.755 140.491C240.057 142.564 241.793 141.32 240.057 142.564C238.321 143.808 237.453 148.369 237.453 148.369L278.248 153.344C278.248 153.344 276.946 137.174 280.418 128.882C283.89 120.589 284.758 117.272 284.758 117.272L282.154 96.5414L270.002 94.0537Z" fill="#575A89"/>
<path d="M202.518 208.696C209.948 208.696 215.971 202.942 215.971 195.843C215.971 188.744 209.948 182.99 202.518 182.99C195.087 182.99 189.064 188.744 189.064 195.843C189.064 202.942 195.087 208.696 202.518 208.696Z" fill="#ECB706"/>
</g>
<defs>
<clipPath id="clip0">
<rect width="315" height="317" fill="white"/>
</clipPath>
</defs>
</svg>
