<svg width="103" height="87" viewBox="0 0 103 87" fill="none" xmlns="http://www.w3.org/2000/svg">
<g clip-path="url(#clip0)">
<rect width="103" height="87" fill="white"/>
<path d="M88.7659 7.99967L2.46087 31.2864L4.74684 38.5523L91.0519 15.2656L88.7659 7.99967Z" fill="#3F3D56"/>
<path d="M12.7714 64.6607L0.0507541 24.2286C-0.0435534 23.9288 -0.00540873 23.6067 0.156791 23.3329C0.318991 23.0592 0.59196 22.8564 0.915653 22.769L85.1284 0.0468029C85.4521 -0.0402393 85.7998 -0.00479485 86.0953 0.14536C86.3908 0.295515 86.6099 0.54811 86.7045 0.8477L97.974 36.6677L97.6253 36.7618L86.3558 0.941808C86.2881 0.727904 86.1316 0.547581 85.9205 0.440343C85.7095 0.333106 85.4612 0.307698 85.23 0.369689L1.01725 23.0919C0.78604 23.1543 0.591063 23.2992 0.475206 23.4947C0.359349 23.6902 0.332103 23.9204 0.399463 24.1345L13.1201 64.5666L12.7714 64.6607Z" fill="#3F3D56"/>
<path d="M79.3356 36.8346C79.0801 36.8344 78.8316 36.7575 78.6272 36.6155C78.4228 36.4736 78.2735 36.2741 78.2018 36.047L76.0682 29.2656C75.981 28.9872 76.0166 28.6882 76.1671 28.4341C76.3177 28.1801 76.5709 27.9917 76.8713 27.9103L84.1942 25.9344C84.4947 25.8537 84.8176 25.8866 85.092 26.0261C85.3664 26.1655 85.5698 26.4001 85.6576 26.6783L87.7912 33.4597C87.8784 33.7381 87.8428 34.0371 87.6923 34.2911C87.5417 34.5452 87.2885 34.7336 86.9881 34.815L79.6653 36.7909C79.5582 36.8198 79.4472 36.8346 79.3356 36.8346Z" fill="#ECB706"/>
<path d="M12.5754 24.3542C12.5534 24.2845 12.5274 24.216 12.4973 24.149C12.2925 23.6888 11.9113 23.3149 11.427 23.0991C10.9426 22.8834 10.3893 22.841 9.87322 22.9801C9.35717 23.1193 8.91486 23.4301 8.63126 23.8529C8.34766 24.2757 8.24278 24.7807 8.33678 25.2707C8.34999 25.3422 8.36757 25.413 8.38945 25.4826C8.52207 25.9018 8.79774 26.27 9.17521 26.5319C9.55267 26.7939 10.0116 26.9355 10.4833 26.9357C10.6892 26.9361 10.8942 26.9089 11.0917 26.855C11.6461 26.7049 12.1137 26.3574 12.3918 25.8886C12.6699 25.4198 12.736 24.868 12.5754 24.3542ZM10.99 26.5321C10.5276 26.6563 10.0309 26.6057 9.60877 26.3914C9.18664 26.177 8.87354 25.8163 8.73812 25.3885C8.71686 25.3188 8.69987 25.248 8.68722 25.1766C8.61911 24.7728 8.71213 24.3599 8.94891 24.015C9.18568 23.6701 9.54999 23.4169 9.97371 23.3028C10.3974 23.1886 10.8516 23.2212 11.2512 23.3946C11.6508 23.568 11.9685 23.8703 12.1449 24.2448C12.1778 24.3106 12.2052 24.3787 12.2267 24.4483C12.3607 24.8765 12.3058 25.3365 12.0739 25.7272C11.842 26.1179 11.4522 26.4073 10.99 26.5321V26.5321Z" fill="#ECB706"/>
<path d="M7.23036 25.7954C7.11414 25.4258 7.1253 25.0318 7.26229 24.6684C7.39928 24.3049 7.65527 23.9901 7.9946 23.7677C7.67669 23.7534 7.35967 23.8096 7.06996 23.9317C6.78025 24.0537 6.52624 24.2382 6.32909 24.4696C6.13194 24.701 5.99734 24.9727 5.93653 25.262C5.87572 25.5514 5.89045 25.85 5.97948 26.133C6.06852 26.4159 6.22929 26.6751 6.44839 26.889C6.6675 27.1028 6.93861 27.265 7.23913 27.3621C7.53965 27.4592 7.86087 27.4885 8.17605 27.4473C8.49123 27.4062 8.79124 27.2959 9.05109 27.1257C8.63588 27.1069 8.23734 26.9687 7.91098 26.7302C7.58463 26.4918 7.3467 26.165 7.23036 25.7954Z" fill="#ECB706"/>
<path d="M63.6839 34.1302C63.6453 34.0015 63.5796 33.8812 63.4907 33.776C63.4017 33.6708 63.2913 33.5829 63.1656 33.5173C63.04 33.4517 62.9016 33.4097 62.7584 33.3936C62.6152 33.3776 62.47 33.3879 62.331 33.4239L50.2744 36.5469L48.9759 36.8833H57.1299L58.4283 36.5469L62.923 35.3832C63.2032 35.3103 63.4407 35.1374 63.5834 34.9025C63.726 34.6676 63.7622 34.3898 63.6839 34.1302Z" fill="#CCCCCC"/>
<path d="M55.1541 31.7977C55.0755 31.5381 54.8889 31.3181 54.6351 31.1859C54.3814 31.0538 54.0814 31.0204 53.8011 31.093L35.7098 35.7785C35.457 35.8448 35.2382 35.9926 35.0926 36.1952C34.9471 36.3978 34.8845 36.6419 34.9162 36.8834H39.5998L40.9 36.5471L54.3932 33.0523C54.6736 32.9792 54.9112 32.806 55.0539 32.5708C55.1965 32.3355 55.2326 32.0575 55.1541 31.7977Z" fill="#CCCCCC"/>
<path d="M101.729 36.5467H14.0143C13.6773 36.5471 13.3542 36.6712 13.1158 36.8919C12.8775 37.1126 12.7435 37.4119 12.7431 37.724V85.8228C12.7435 86.135 12.8775 86.4342 13.1158 86.6549C13.3541 86.8756 13.6773 86.9997 14.0143 87.0001H101.729C102.066 86.9997 102.389 86.8756 102.627 86.6549C102.866 86.4342 103 86.135 103 85.8228V37.724C103 37.4119 102.866 37.1126 102.627 36.8919C102.389 36.6712 102.066 36.5471 101.729 36.5467ZM102.637 85.8228C102.637 86.0458 102.541 86.2597 102.371 86.4173C102.2 86.575 101.97 86.6636 101.729 86.6637H14.0143C13.7735 86.6637 13.5426 86.575 13.3723 86.4173C13.2021 86.2597 13.1064 86.0458 13.1063 85.8228V37.724C13.1064 37.501 13.2021 37.2872 13.3724 37.1295C13.5426 36.9718 13.7735 36.8832 14.0143 36.8831H101.729C101.97 36.8832 102.2 36.9718 102.371 37.1295C102.541 37.2872 102.637 37.501 102.637 37.724V85.8228Z" fill="#3F3D56"/>
<path d="M22.549 43.106C22.118 43.106 21.6967 42.9876 21.3383 42.7659C20.9799 42.5441 20.7006 42.2289 20.5357 41.8602C20.3707 41.4914 20.3276 41.0856 20.4117 40.6942C20.4957 40.3027 20.7033 39.9431 21.0081 39.6608C21.3128 39.3786 21.7011 39.1864 22.1239 39.1085C22.5466 39.0306 22.9848 39.0706 23.383 39.2234C23.7812 39.3761 24.1215 39.6348 24.361 39.9667C24.6005 40.2985 24.7283 40.6887 24.7283 41.0879C24.7276 41.6229 24.4978 42.1359 24.0892 42.5142C23.6807 42.8926 23.1268 43.1054 22.549 43.106ZM22.549 39.4061C22.1898 39.4061 21.8387 39.5047 21.5401 39.6895C21.2414 39.8743 21.0087 40.137 20.8712 40.4443C20.7338 40.7516 20.6978 41.0897 20.7679 41.416C20.838 41.7422 21.0109 42.0419 21.2649 42.2771C21.5189 42.5123 21.8425 42.6724 22.1947 42.7373C22.547 42.8022 22.9122 42.7689 23.244 42.6416C23.5758 42.5143 23.8595 42.2988 24.059 42.0222C24.2585 41.7457 24.3651 41.4205 24.3651 41.0879C24.3645 40.642 24.173 40.2145 23.8326 39.8992C23.4921 39.5839 23.0305 39.4066 22.549 39.4061Z" fill="#ECB706"/>
<path d="M19.1617 41.0878C19.1618 40.7028 19.2915 40.3274 19.5328 40.014C19.7741 39.7005 20.115 39.4645 20.5079 39.339C20.2071 39.2428 19.8857 39.2147 19.5707 39.2568C19.2557 39.299 18.9561 39.4103 18.6969 39.5814C18.4377 39.7525 18.2265 39.9784 18.0807 40.2405C17.9349 40.5025 17.8588 40.793 17.8588 41.0878C17.8588 41.3825 17.9349 41.673 18.0807 41.9351C18.2265 42.1971 18.4377 42.4231 18.6969 42.5942C18.9561 42.7653 19.2557 42.8765 19.5707 42.9187C19.8857 42.9609 20.2071 42.9327 20.5079 42.8366C20.115 42.711 19.7741 42.475 19.5328 42.1616C19.2915 41.8481 19.1618 41.4727 19.1617 41.0878Z" fill="#ECB706"/>
<path d="M31.3829 64.9318C30.9495 64.9314 30.5341 64.7718 30.2277 64.488C29.9213 64.2043 29.7489 63.8195 29.7484 63.4182V58.8774C29.7484 58.476 29.9206 58.091 30.2272 57.8072C30.5337 57.5233 30.9494 57.3638 31.3829 57.3638C31.8164 57.3638 32.2321 57.5233 32.5386 57.8072C32.8451 58.091 33.0173 58.476 33.0173 58.8774V63.4182C33.0168 63.8195 32.8444 64.2043 32.538 64.488C32.2316 64.7718 31.8162 64.9314 31.3829 64.9318Z" fill="#ECB706"/>
<path d="M35.7413 64.9318C35.308 64.9314 34.8926 64.7718 34.5862 64.488C34.2798 64.2043 34.1074 63.8195 34.1069 63.4182V58.8774C34.1069 58.476 34.2791 58.091 34.5856 57.8072C34.8921 57.5233 35.3079 57.3638 35.7413 57.3638C36.1748 57.3638 36.5905 57.5233 36.8971 57.8072C37.2036 58.091 37.3758 58.476 37.3758 58.8774V63.4182C37.3753 63.8195 37.2029 64.2043 36.8965 64.488C36.5901 64.7718 36.1747 64.9314 35.7413 64.9318Z" fill="#ECB706"/>
<path d="M40.0998 64.9318C39.6665 64.9314 39.2511 64.7718 38.9447 64.488C38.6383 64.2043 38.4659 63.8195 38.4654 63.4182V58.8774C38.4654 58.476 38.6376 58.091 38.9441 57.8072C39.2506 57.5233 39.6663 57.3638 40.0998 57.3638C40.5333 57.3638 40.949 57.5233 41.2555 57.8072C41.5621 58.091 41.7343 58.476 41.7343 58.8774V63.4182C41.7338 63.8195 41.5614 64.2043 41.255 64.488C40.9486 64.7718 40.5332 64.9314 40.0998 64.9318Z" fill="#ECB706"/>
<path d="M46.8191 64.9318C46.3858 64.9314 45.9704 64.7718 45.664 64.488C45.3576 64.2043 45.1852 63.8195 45.1847 63.4182V58.8774C45.1847 58.476 45.3569 58.091 45.6634 57.8072C45.9699 57.5233 46.3857 57.3638 46.8191 57.3638C47.2526 57.3638 47.6683 57.5233 47.9749 57.8072C48.2814 58.091 48.4536 58.476 48.4536 58.8774V63.4182C48.4531 63.8195 48.2807 64.2043 47.9743 64.488C47.6679 64.7718 47.2525 64.9314 46.8191 64.9318Z" fill="#ECB706"/>
<path d="M51.1776 64.9318C50.7443 64.9314 50.3289 64.7718 50.0225 64.488C49.7161 64.2043 49.5437 63.8195 49.5432 63.4182V58.8774C49.5432 58.476 49.7154 58.091 50.0219 57.8072C50.3284 57.5233 50.7441 57.3638 51.1776 57.3638C51.6111 57.3638 52.0268 57.5233 52.3333 57.8072C52.6399 58.091 52.8121 58.476 52.8121 58.8774V63.4182C52.8116 63.8195 52.6392 64.2043 52.3328 64.488C52.0264 64.7718 51.611 64.9314 51.1776 64.9318Z" fill="#ECB706"/>
<path d="M55.5361 64.9318C55.1028 64.9314 54.6873 64.7718 54.3809 64.488C54.0745 64.2043 53.9021 63.8195 53.9017 63.4182V58.8774C53.9017 58.476 54.0739 58.091 54.3804 57.8072C54.6869 57.5233 55.1026 57.3638 55.5361 57.3638C55.9696 57.3638 56.3853 57.5233 56.6918 57.8072C56.9983 58.091 57.1705 58.476 57.1705 58.8774V63.4182C57.17 63.8195 56.9977 64.2043 56.6913 64.488C56.3848 64.7718 55.9694 64.9314 55.5361 64.9318Z" fill="#ECB706"/>
<path d="M62.2554 64.9318C61.8221 64.9314 61.4067 64.7718 61.1003 64.488C60.7939 64.2043 60.6215 63.8195 60.621 63.4182V58.8774C60.621 58.476 60.7932 58.091 61.0997 57.8072C61.4062 57.5233 61.822 57.3638 62.2554 57.3638C62.6889 57.3638 63.1046 57.5233 63.4111 57.8072C63.7177 58.091 63.8899 58.476 63.8899 58.8774V63.4182C63.8894 63.8195 63.717 64.2043 63.4106 64.488C63.1042 64.7718 62.6888 64.9314 62.2554 64.9318Z" fill="#ECB706"/>
<path d="M66.6139 64.9318C66.1806 64.9314 65.7652 64.7718 65.4587 64.488C65.1523 64.2043 64.98 63.8195 64.9795 63.4182V58.8774C64.9795 58.476 65.1517 58.091 65.4582 57.8072C65.7647 57.5233 66.1804 57.3638 66.6139 57.3638C67.0474 57.3638 67.4631 57.5233 67.7696 57.8072C68.0761 58.091 68.2483 58.476 68.2483 58.8774V63.4182C68.2478 63.8195 68.0755 64.2043 67.7691 64.488C67.4627 64.7718 67.0472 64.9314 66.6139 64.9318Z" fill="#ECB706"/>
<path d="M70.9724 64.9318C70.5391 64.9314 70.1236 64.7718 69.8172 64.488C69.5108 64.2043 69.3384 63.8195 69.338 63.4182V58.8774C69.338 58.476 69.5102 58.091 69.8167 57.8072C70.1232 57.5233 70.5389 57.3638 70.9724 57.3638C71.4059 57.3638 71.8216 57.5233 72.1281 57.8072C72.4346 58.091 72.6068 58.476 72.6068 58.8774V63.4182C72.6063 63.8195 72.434 64.2043 72.1276 64.488C71.8211 64.7718 71.4057 64.9314 70.9724 64.9318Z" fill="#ECB706"/>
<path d="M77.6917 64.9318C77.2584 64.9314 76.843 64.7718 76.5365 64.488C76.2301 64.2043 76.0578 63.8195 76.0573 63.4182V58.8774C76.0573 58.476 76.2295 58.091 76.536 57.8072C76.8425 57.5233 77.2582 57.3638 77.6917 57.3638C78.1252 57.3638 78.5409 57.5233 78.8474 57.8072C79.1539 58.091 79.3261 58.476 79.3261 58.8774V63.4182C79.3256 63.8195 79.1533 64.2043 78.8469 64.488C78.5405 64.7718 78.125 64.9314 77.6917 64.9318Z" fill="#ECB706"/>
<path d="M82.0502 64.9318C81.6169 64.9314 81.2014 64.7718 80.895 64.488C80.5886 64.2043 80.4163 63.8195 80.4158 63.4182V58.8774C80.4158 58.476 80.588 58.091 80.8945 57.8072C81.201 57.5233 81.6167 57.3638 82.0502 57.3638C82.4837 57.3638 82.8994 57.5233 83.2059 57.8072C83.5124 58.091 83.6846 58.476 83.6846 58.8774V63.4182C83.6841 63.8195 83.5118 64.2043 83.2054 64.488C82.899 64.7718 82.4835 64.9314 82.0502 64.9318Z" fill="#ECB706"/>
<path d="M86.4087 64.9318C85.9753 64.9314 85.5599 64.7718 85.2535 64.488C84.9471 64.2043 84.7747 63.8195 84.7742 63.4182V58.8774C84.7742 58.476 84.9464 58.091 85.253 57.8072C85.5595 57.5233 85.9752 57.3638 86.4087 57.3638C86.8421 57.3638 87.2579 57.5233 87.5644 57.8072C87.8709 58.091 88.0431 58.476 88.0431 58.8774V63.4182C88.0426 63.8195 87.8702 64.2043 87.5638 64.488C87.2574 64.7718 86.842 64.9314 86.4087 64.9318Z" fill="#ECB706"/>
<path d="M42.4639 81.7776H18.9572C18.6659 81.7776 18.3866 81.6705 18.1806 81.4797C17.9746 81.289 17.8589 81.0303 17.8589 80.7606C17.8589 80.4908 17.9746 80.2322 18.1806 80.0414C18.3866 79.8507 18.6659 79.7435 18.9572 79.7435H42.4639C42.7552 79.7435 43.0346 79.8507 43.2405 80.0414C43.4465 80.2322 43.5622 80.4908 43.5622 80.7606C43.5622 81.0303 43.4465 81.289 43.2405 81.4797C43.0346 81.6705 42.7552 81.7776 42.4639 81.7776Z" fill="#E6E6E6"/>
<path d="M34.9274 77.4051H26.4937C26.2024 77.4051 25.9231 77.2979 25.7171 77.1072C25.5112 76.9164 25.3955 76.6578 25.3955 76.388C25.3955 76.1183 25.5112 75.8596 25.7171 75.6689C25.9231 75.4781 26.2024 75.371 26.4937 75.371H34.9274C35.2187 75.371 35.498 75.4781 35.704 75.6689C35.9099 75.8596 36.0256 76.1183 36.0256 76.388C36.0256 76.6578 35.9099 76.9164 35.704 77.1072C35.498 77.2979 35.2187 77.4051 34.9274 77.4051Z" fill="#E6E6E6"/>
<path d="M102.571 46.6004H13.0409V46.9368H102.571V46.6004Z" fill="#3F3D56"/>
</g>
<defs>
<clipPath id="clip0">
<rect width="103" height="87" fill="white"/>
</clipPath>
</defs>
</svg>
