<svg width="132" height="74" viewBox="0 0 132 74" fill="none" xmlns="http://www.w3.org/2000/svg">
<path d="M79.668 61.5067V60.2419L79.14 60.8053C73.6428 55.7211 70.3311 48.8698 69.8547 41.5868C69.3679 34.1458 71.8769 26.8039 76.8778 21.0552C81.8793 15.3057 88.9987 11.5814 96.7901 10.6474C104.582 9.71337 112.452 11.641 118.799 16.0336C125.145 20.4256 129.489 26.9499 130.955 34.2746C132.422 41.5988 130.902 49.1815 126.702 55.4813C122.502 61.782 115.933 66.3284 108.328 68.1879C100.723 70.0474 92.6593 69.0781 85.7804 65.4796L85.5156 65.3411L85.2682 65.5086C84.2104 66.2251 82.3981 67.2925 80.2242 67.9236C78.2565 68.4948 76.0174 68.7019 73.775 67.9931L79.1986 62.2052L79.668 62.6255V61.5067Z" stroke="#F9A826"/>
<path d="M96.0573 34.211C98.422 34.1769 100.787 34.1427 103.153 34.1121C105.313 34.0842 107.472 34.0597 109.632 34.0387L96.0573 34.211ZM96.0573 34.211C91.9468 34.2703 87.8377 34.3296 83.7268 34.3703M96.0573 34.211L83.7268 34.3703M83.7268 34.3703C83.3936 34.3736 83.1838 34.2575 83.0532 34.1139M83.7268 34.3703L83.0532 34.1139M110.315 32.5411C110.185 32.3975 109.975 32.2814 109.642 32.2847C105.531 32.3255 101.422 32.3848 97.3116 32.4441C94.9468 32.4782 92.5816 32.5123 90.2153 32.5429C88.0558 32.5708 85.8963 32.5953 83.7367 32.6163L110.315 32.5411ZM110.315 32.5411C110.454 32.6936 110.534 32.9116 110.534 33.1474M110.315 32.5411L110.534 33.1474M110.534 33.1474C110.534 33.3831 110.453 33.6059 110.311 33.7647M110.534 33.1474L110.311 33.7647M110.311 33.7647C110.177 33.9151 109.964 34.0354 109.632 34.0387L110.311 33.7647ZM83.0532 34.1139C82.9145 33.9615 82.8345 33.7434 82.8347 33.5076M83.0532 34.1139L82.8347 33.5076M82.8347 33.5076C82.835 33.2719 82.9154 33.0492 83.0574 32.8903M82.8347 33.5076L83.0574 32.8903M83.0574 32.8903C83.1918 32.74 83.4049 32.6197 83.7366 32.6163L83.0574 32.8903Z" fill="white" stroke="#F9A826"/>
<path d="M83.7367 39.0421L83.7318 38.5422L83.7367 39.0421L91.181 38.9687L117.356 38.7105C117.689 38.7072 117.899 38.8233 118.03 38.9669C118.168 39.1194 118.248 39.3375 118.248 39.5733C118.248 39.809 118.167 40.0317 118.025 40.1905C117.891 40.3409 117.678 40.4612 117.346 40.4645L109.902 40.5379L83.7268 40.7961C83.3936 40.7994 83.1838 40.6833 83.0532 40.5397C82.9145 40.3872 82.8345 40.1691 82.8347 39.9333C82.835 39.6976 82.9154 39.4749 83.0574 39.3161C83.1918 39.1657 83.4049 39.0454 83.7367 39.0421Z" fill="white" stroke="#F9A826"/>
<path d="M109.902 46.9637L83.7268 47.2219C83.3936 47.2252 83.1838 47.109 83.0532 46.9654C82.9145 46.813 82.8345 46.5949 82.8347 46.3591C82.835 46.1234 82.9154 45.9007 83.0574 45.7418C83.1918 45.5915 83.4049 45.4712 83.7367 45.4679L91.181 45.3945L117.356 45.1363C117.689 45.133 117.899 45.2491 118.03 45.3927C118.168 45.5452 118.248 45.7633 118.248 45.9991C118.248 46.2348 118.167 46.4575 118.025 46.6163C117.891 46.7667 117.678 46.887 117.346 46.8903L109.902 46.9637Z" fill="white" stroke="#F9A826"/>
<path d="M66.3523 71.8289C66.3523 72.7289 65.5786 73.5 64.5718 73.5C63.5649 73.5 62.7912 72.7289 62.7912 71.8289C62.7912 70.9289 63.5649 70.1578 64.5718 70.1578C65.5786 70.1578 66.3523 70.9289 66.3523 71.8289Z" fill="#E6E6E6" stroke="#F9A826"/>
<path d="M62.5861 29.7792C62.5834 23.2501 60.3277 16.9026 56.1659 11.713C52.0041 6.52345 46.1667 2.77919 39.5515 1.05613C32.9363 -0.666933 25.9097 -0.273376 19.5523 2.17627C13.195 4.62591 7.85906 8.99597 4.36517 14.6143C0.871279 20.2327 -0.587048 26.7882 0.214485 33.2725C1.01602 39.7569 4.03302 45.811 8.80146 50.5038C13.5699 55.1965 19.8257 58.268 26.6067 59.2458C33.3877 60.2236 40.3183 59.0536 46.3327 55.9156C48.4967 57.3814 53.7758 60.3051 58.991 58.1991L52.7133 51.4997C55.834 48.7161 58.3206 45.3518 60.0189 41.6154C61.7173 37.8791 62.5911 33.8503 62.5861 29.7792Z" fill="#ECB706"/>
<path d="M15.2775 24.8635C21.7538 24.7993 28.2294 24.689 34.7055 24.6053C36.8645 24.5773 39.0235 24.5529 41.1826 24.5318C43.0429 24.5134 43.0477 21.7594 41.1826 21.7779C34.7062 21.8421 28.2306 21.9524 21.7545 22.0361C19.5956 22.064 17.4365 22.0885 15.2775 22.1095C13.4171 22.128 13.4124 24.8819 15.2775 24.8635Z" fill="white"/>
<path d="M15.2775 31.2892L41.4524 31.0311L48.8966 30.9576C50.757 30.9393 50.7617 28.1853 48.8966 28.2037L22.7217 28.4619L15.2775 28.5353C13.4171 28.5537 13.4124 31.3076 15.2775 31.2892V31.2892Z" fill="white"/>
<path d="M15.2775 37.715L41.4524 37.4568L48.8966 37.3834C50.757 37.365 50.7617 34.6111 48.8966 34.6295L22.7217 34.8877L15.2775 34.9611C13.4171 34.9794 13.4124 37.7334 15.2775 37.715Z" fill="white"/>
</svg>
