<svg width="1440" height="1024" viewBox="0 0 1440 1024" fill="none" xmlns="http://www.w3.org/2000/svg">
<rect width="1440" height="1024" fill="white"/>
<g clip-path="url(#clip0)">
<path d="M1440 0H0V330H1440V0Z" fill="white"/>
<g opacity="0.1">
<path opacity="0.1" d="M28.6863 -108.448C26.1273 -104.806 25.1416 -99.6916 24.0363 -94.8636C15.1546 -56.0471 -6.72124 -24.808 -31.6388 -2.51875C-42.1884 6.92714 -55.0381 19.6017 -52.7276 36.5321C-51.4882 45.6267 -46.0316 52.2943 -41.9694 59.7317C-33.4659 75.2439 -30.7133 96.3366 -34.7652 114.9C-39.3759 136.029 -52.2504 155.767 -48.2625 177.111C-45.8034 190.28 -37.4589 199.622 -29.4336 207.667C-16.9172 220.211 -4.00133 231.957 9.31465 242.911C18.2413 250.253 27.7354 257.4 38.1356 258.327C47.2961 259.151 56.2675 255.07 64.96 251.036C72.5573 247.533 80.3487 243.849 86.4824 236.792C90.4651 232.186 93.6813 226.237 98.1272 222.472C108.582 213.616 121.994 219.231 133.973 223.002C162.48 231.876 192.746 228.628 219.405 213.831C260.672 191.063 292.127 143.338 332.479 117.714C349.834 106.694 368.712 99.8561 384.784 85.6642C393.839 77.5783 401.619 67.7004 407.775 56.4745C419.942 34.4945 426.499 6.47184 424.612 -20.955C422.726 -48.3817 412.082 -74.822 395.389 -90.3043C377.514 -106.878 354.942 -109.972 334.6 -119.926C313.596 -130.207 294.915 -147.878 274.115 -158.901C257.281 -167.798 238.961 -172.161 220.501 -171.672C202.04 -171.184 183.908 -165.853 167.434 -156.075C144.796 -142.677 121.855 -111.35 96.6386 -108.997C78.6909 -107.31 42.7159 -128.403 28.6863 -108.448Z" fill="#FF9D00"/>
<path opacity="0.1" d="M776.753 -215.053C774.196 -211.409 773.209 -206.295 772.104 -201.467C763.222 -162.652 741.346 -131.412 716.429 -109.123C705.879 -99.6769 693.029 -87.0026 695.34 -70.0726C696.579 -60.977 702.035 -54.31 706.098 -46.8724C714.601 -31.3609 717.355 -10.2684 713.302 8.2964C708.691 29.424 695.817 49.162 699.804 70.5058C702.265 83.6756 710.608 93.0169 718.634 101.061C731.149 113.605 744.066 125.353 757.382 136.306C766.308 143.651 775.804 150.796 786.203 151.723C795.363 152.548 804.334 148.466 813.027 144.431C820.625 140.93 828.416 137.246 834.55 130.188C838.532 125.581 841.748 119.632 846.194 115.867C856.649 107.01 870.062 112.627 882.041 116.399C910.547 125.272 940.813 122.023 967.472 107.227C1008.74 84.4591 1040.19 36.733 1080.54 11.1102C1097.9 0.0880414 1116.78 -6.74804 1132.85 -20.9402C1141.91 -29.0257 1149.69 -38.9043 1155.84 -50.1301C1168.01 -72.1101 1174.57 -100.132 1172.68 -127.559C1170.79 -154.986 1160.15 -181.426 1143.46 -196.909C1125.58 -213.482 1103.01 -216.577 1082.67 -226.53C1061.66 -236.811 1042.98 -254.482 1022.18 -265.504C1005.35 -274.401 987.029 -278.765 968.568 -278.276C950.107 -277.788 931.975 -272.458 915.5 -262.677C892.864 -249.28 869.923 -217.954 844.706 -215.6C826.758 -213.915 790.784 -235.006 776.753 -215.053Z" fill="#FF9D00"/>
</g>
</g>
<defs>
<clipPath id="clip0">
<rect width="1440" height="330" fill="white"/>
</clipPath>
</defs>
</svg>
