<svg width="696" height="625" viewBox="0 0 696 625" fill="none" xmlns="http://www.w3.org/2000/svg">
<path d="M621.626 57.1002H162.505V398.839H621.626V57.1002Z" fill="#EDEDF4"/>
<path d="M227.702 206.674L229.345 209.21L230.441 212.759" stroke="black"/>
<path d="M264.326 341.429C292.385 341.429 315.134 338.693 315.134 335.32C315.134 331.946 292.385 329.212 264.326 329.212C236.268 329.212 213.523 331.946 213.523 335.32C213.523 338.693 236.268 341.429 264.326 341.429Z" fill="#3B477B"/>
<path d="M272.381 111.609H256.274V335.321H272.381V111.609Z" fill="#3B477B"/>
<path d="M330.15 128.592C327.779 124.536 320.071 119.567 308.24 132.141L310.98 180.309C311.709 180.816 313.825 182.135 316.463 183.351C319.09 184.568 326.685 182.845 330.15 181.83V160.535V128.592Z" fill="#ECB706"/>
<path opacity="0.9" d="M199.76 128.501C202.135 124.446 209.842 119.476 221.675 132.051L218.936 180.218C218.205 180.726 216.088 182.044 213.457 183.26C210.828 184.478 203.231 182.754 199.76 181.74V160.445V128.501Z" fill="#ECB706"/>
<path d="M264.327 133.228C275.621 133.228 284.777 126.284 284.777 117.718C284.777 109.151 275.621 102.206 264.327 102.206C253.033 102.206 243.878 109.151 243.878 117.718C243.878 126.284 253.033 133.228 264.327 133.228Z" fill="#3B477B"/>
<path d="M309.56 131.818C309.56 131.818 301.508 144.98 295.313 172.223L259.993 142.632C259.993 142.632 269.482 139.728 279.558 136.468C289.044 133.399 299.25 131.818 309.56 131.818Z" fill="#ECB706"/>
<path d="M507.675 131.27C505.47 135.157 500.655 143.743 498.9 146.988L507.675 167.269C509.678 179.946 514.459 205.904 517.53 208.339C520.59 210.772 529.759 209.353 533.966 208.339V196.17V167.269C533.966 159.157 531.334 142.424 527.396 138.369C520.264 131.27 513.874 130.764 507.675 131.27Z" fill="#666262" fill-opacity="0.21"/>
<path d="M426.574 131.27C428.779 135.157 433.594 143.743 435.349 146.988L426.574 167.269C424.571 179.946 419.79 205.904 416.719 208.339C413.648 210.772 404.49 209.353 400.283 208.339V196.17V167.269C400.283 159.157 402.915 142.424 406.864 138.369C413.985 131.27 420.375 130.764 426.574 131.27Z" fill="#666262" fill-opacity="0.21"/>
<path opacity="0.08" d="M309.56 131.818C309.56 131.818 301.508 144.98 295.313 172.223L259.993 142.632C259.993 142.632 269.482 139.728 279.558 136.468C289.044 133.399 299.25 131.818 309.56 131.818Z" fill="black"/>
<path d="M231.998 174.959C231.998 174.959 215.329 195.74 214.096 220.299C212.863 244.859 224.595 318.187 224.595 318.187C224.595 318.187 264.106 333.093 303.616 318.187C303.616 318.187 315.972 242.988 314.725 219.006C313.488 195.022 289.727 163.577 289.727 163.577L231.998 174.959Z" fill="#ECB706"/>
<path d="M217.292 255.856L216.197 256.87L217.84 269.546L218.388 274.109L218.936 278.165L219.484 278.673L221.127 279.18L223.319 281.208L224.963 285.263L226.058 289.32L228.25 291.349L230.989 291.856H233.729L236.468 290.841L238.112 288.306L239.755 284.757L240.303 281.208L243.042 278.165H245.234L246.878 280.193L248.522 284.757L250.713 289.827L253.452 291.856L257.287 292.363L261.123 290.334L263.314 286.785L265.505 281.208L266.601 279.18L268.793 277.658H270.984L273.176 279.687L278.654 288.814L281.942 291.349L285.229 291.856L288.517 291.349L291.255 289.32L293.447 285.77L294.543 284.25L295.638 281.715L296.734 279.18L298.379 277.658H301.118L304.404 280.193L307.144 283.236L308.24 285.77L308.787 284.757L310.226 273.095L310.98 266.504L311.528 263.462L310.431 262.955L309.335 259.912L306.596 256.87L303.309 255.856L300.57 256.87L298.379 258.898L296.734 263.462L295.638 269.546L293.995 273.095L291.255 275.123L288.517 276.137L286.326 275.123L283.037 272.588L280.846 268.532L278.106 261.941L275.367 257.885L272.628 255.856L269.888 256.363L267.149 258.898L262.766 270.053L261.123 274.109L258.383 276.137H254.548L251.261 271.574L248.522 258.898L246.33 256.87L242.495 256.363L239.755 258.391L238.659 260.927L237.564 263.462L236.468 268.024L235.372 272.588L234.276 274.616L230.989 276.137H227.154L223.319 271.574L220.58 261.434V259.405L220.032 258.391L219.484 256.363L218.936 255.856H218.388L217.84 255.349L217.292 255.856Z" fill="#F7FB31" fill-opacity="0.59"/>
<path opacity="0.08" d="M272.696 164.95C272.696 164.95 280.75 164.478 285.707 166.36C290.664 168.244 297.173 168.415 297.173 168.415" fill="black"/>
<path opacity="0.08" d="M272.696 167.751C272.696 167.751 280.75 167.278 285.707 169.161C290.664 171.046 297.173 171.216 297.173 171.216" fill="black"/>
<path d="M214.553 213.774L216.197 210.73L216.744 209.21L219.484 206.167L221.127 204.646H224.415L226.058 205.153L227.702 206.674L228.798 208.703L229.346 210.223L229.893 212.759L230.441 215.8L230.989 217.829L232.085 220.364L233.181 222.899L234.826 224.42L237.016 224.927H240.303L243.042 222.899L244.138 221.379L246.33 217.829L247.426 214.28L248.522 212.252L249.069 210.223L250.713 207.181L253.452 205.153L256.192 204.646L259.479 206.674L261.124 210.223L262.218 213.774L263.314 216.815L264.41 220.364L266.053 223.406L267.697 224.927L270.984 225.434L273.725 224.42L275.915 221.379L276.463 218.336L277.011 214.786L278.107 209.717L278.996 207.181L280.846 205.153L283.037 204.646L285.777 205.153L287.421 206.674L289.064 209.717L289.612 212.252L290.708 215.293V217.829L291.803 220.364L292.899 222.899L294.543 224.927L297.282 225.434L300.023 224.927L302.213 223.406L303.309 220.871L304.404 217.322L304.952 215.293L306.048 210.73L306.596 207.181L307.692 204.646L309.335 203.125L310.979 203.633L312.076 205.153L312.619 207.688L313.723 211.238L314.265 213.52H313.723V214.28L312.619 216.815L310.979 220.364C310.614 221.379 309.774 223.609 309.335 224.42C308.898 225.232 307.692 227.124 307.144 227.969L303.309 233.547L298.927 235.068H295.091L291.256 232.533L289.612 226.956L287.969 223.406L286.326 221.379L284.133 220.871L281.942 222.899L279.75 227.969L277.559 232.533L274.82 234.561L269.888 235.068L266.053 233.547L263.862 229.998L261.671 225.941L260.027 222.899L257.287 220.871L254.548 221.379L252.356 222.899L250.165 225.941L247.975 229.998L245.234 233.547L240.851 235.068L236.468 234.561L232.085 231.012L229.893 227.969L228.25 224.42L226.606 221.379L223.867 220.364L221.127 220.871L218.388 223.406L216.197 225.941L214.005 228.983V225.941L214.553 213.774Z" fill="#F7FB31" fill-opacity="0.59"/>
<path d="M220.339 131.818C220.339 131.818 231.489 156.726 232.076 166.594V178.345H297.137V166.128C289.192 158.51 280.224 151.54 270.377 145.33C256.247 136.585 238.566 131.814 220.33 131.825L220.339 131.818Z" fill="#ECB706"/>
<path d="M233.385 173.18C269.777 174.953 288.757 173.918 293.698 173.18" stroke="black" stroke-opacity="0.06"/>
<path opacity="0.08" d="M272.696 171.531C272.696 171.531 280.75 171.059 285.707 172.942C290.664 174.825 297.173 174.996 297.173 174.996" fill="black"/>
<path d="M214.553 229.297C218.06 222.906 220.58 221.809 222.771 220.81C222.771 220.81 224.415 220.579 225.51 221.308C227.702 222.767 229.346 227.759 230.989 230.255C232.633 232.75 235.92 235.286 238.659 235.286C243.919 235.286 244.32 234.249 245.234 233.749C246.147 233.251 247.426 231.832 249.069 229.297C250.713 226.761 252.904 221.809 255.644 221.308C260.027 219.771 262.238 227.153 263.862 230.794C264.958 233.251 268.659 236.58 273.724 235.286C280.298 233.609 279.75 226.221 281.942 223.265C284.133 220.31 286.325 220.769 287.969 223.265C289.612 225.762 289.612 229.071 291.256 232.026C292.899 234.981 295.091 235.286 297.83 235.286C300.571 235.286 302.761 234.68 306.596 229.297C310.431 223.914 312.076 219.35 312.619 217.322C313.172 215.293 313.723 214.28 314.265 214.28" stroke="black" stroke-opacity="0.42"/>
<path d="M308.239 286.083C305.041 279.694 302.743 278.595 300.744 277.598C300.744 277.598 299.245 277.367 298.245 278.096C296.247 279.554 294.747 284.545 293.249 287.042C291.749 289.538 288.751 292.074 286.253 292.074C281.456 292.074 281.089 291.035 280.256 290.536C279.423 290.037 278.257 288.62 276.758 286.083C275.258 283.547 273.26 278.595 270.761 278.096C266.763 276.558 264.747 283.941 263.265 287.581C262.266 290.037 258.89 293.366 254.271 292.074C248.275 290.396 248.774 283.008 246.775 280.053C244.776 277.097 242.778 277.557 241.278 280.053C239.78 282.549 239.78 285.857 238.28 288.814C236.782 291.769 233.536 292.074 231.537 292.074C229.538 292.074 226.606 291.419 225.511 287.581C224.415 283.743 223.867 282.01 222.222 280.053C220.58 278.673 219.484 278.749 218.936 278.096" stroke="black" stroke-opacity="0.42"/>
<path opacity="0.08" d="M235.516 178.584C235.516 178.584 230.559 188.453 231.183 189.863C231.805 191.274 226.226 199.732 226.226 199.732" fill="black"/>
<path opacity="0.08" d="M239.236 184.694C239.236 184.694 234.279 194.561 234.902 195.973C235.525 197.383 229.945 205.84 229.945 205.84" fill="black"/>
<path opacity="0.08" d="M294.998 178.584C294.998 178.584 299.955 188.453 299.331 189.863C298.709 191.274 304.288 199.732 304.288 199.732" fill="black"/>
<path opacity="0.08" d="M291.278 184.694C291.278 184.694 296.235 194.561 295.611 195.973C294.988 197.383 300.568 205.84 300.568 205.84" fill="black"/>
<g opacity="0.08">
<path opacity="0.08" d="M544.26 307.591C549.671 308.421 553.462 307.866 556.162 306.654C552.146 306.32 548.096 306.64 544.26 307.591Z" fill="white"/>
<path opacity="0.08" d="M391.035 306.886C388.56 305.475 392.261 302.66 392.261 302.66L371.817 296.552L426.956 219.002L353.243 296.545L373.688 302.66C373.688 302.66 369.977 305.483 372.451 306.893C372.451 306.893 381.135 313.002 404.063 313.939C404.828 313.226 405.784 312.643 406.875 312.228C395.614 310.098 391.035 306.886 391.035 306.886Z" fill="white"/>
<path opacity="0.08" d="M443.089 316.282C429.454 306.88 422.636 313.933 422.636 313.933C421.871 313.933 421.106 313.864 420.386 313.823C421.838 314.566 423.21 315.39 424.493 316.289C433.684 322.624 444.259 321.275 450.188 319.713C447.578 318.897 445.17 317.735 443.089 316.282Z" fill="white"/>
<path opacity="0.08" d="M500.093 317.727C491.059 312.934 482.779 314.427 477.919 316.138C479.179 316.593 480.394 317.125 481.53 317.727C488.483 321.391 496.313 320.589 502.511 318.802C501.668 318.49 500.869 318.129 500.093 317.727Z" fill="white"/>
</g>
<path opacity="0.08" d="M442.965 225.345H433.74C433.616 216.504 425.089 187.918 421.77 177.119C425.921 176.141 430.151 175.337 434.404 174.716C435.124 186.091 441.266 216.983 442.965 225.345Z" fill="white"/>
<path d="M468.626 341.086C496.684 341.086 519.432 338.351 519.432 334.978C519.432 331.604 496.684 328.869 468.626 328.869C440.558 328.869 417.821 331.604 417.821 334.978C417.821 338.351 440.558 341.086 468.626 341.086Z" fill="#3B477B"/>
<path d="M476.659 116.93H460.549V340.641H476.659V116.93Z" fill="#3B477B"/>
<path d="M467.85 142.882C479.145 142.882 488.302 135.939 488.302 127.371C488.302 118.805 479.145 111.86 467.85 111.86C456.555 111.86 447.398 118.805 447.398 127.371C447.398 135.939 456.555 142.882 467.85 142.882Z" fill="#3B477B"/>
<g opacity="0.08">
<path opacity="0.08" d="M660.259 148.036C660.259 148.036 669.056 141.043 679.834 139.673C670.012 137.263 660.27 141.728 654.994 144.85C656.827 145.837 658.582 146.9 660.259 148.036Z" fill="black"/>
<path opacity="0.08" d="M425.887 306.729L421.241 246.896C419.88 229.454 422.839 212.039 432.694 196.384V176.525C432.694 176.525 428.362 155.842 426.506 152.555C426.506 152.555 431.49 146.029 441.322 144.817C425.336 141.441 417.214 152.09 417.214 152.09C419.07 155.377 423.412 176.058 423.412 176.058V195.919C413.546 211.58 410.588 228.988 411.949 246.431L416.595 306.264C429.679 309.769 443.392 311.728 457.263 312.072C446.554 311.256 436.012 309.463 425.887 306.729Z" fill="black"/>
</g>
<g opacity="0.08">
<path opacity="0.08" d="M641.674 147.562C643.069 146.502 644.554 145.517 646.129 144.617C637.095 139.7 629.749 139.015 624.135 140.029C629.164 140.863 635.014 143.096 641.674 147.562Z" fill="black"/>
<path opacity="0.08" d="M686.786 193.213C686.201 191.699 685.616 190.274 685.054 188.994V171.531L692.479 147.563C685.178 139.441 676.65 138.167 669.236 139.406C673.995 140.29 678.81 142.693 683.186 147.563L675.75 171.531V188.981C676.324 190.261 676.898 191.686 677.483 193.199C684.806 212.118 687.776 231.849 686.291 251.532L682.568 301.702C671.734 305.544 660.236 307.139 649.414 307.476C662.768 307.879 677.842 306.66 691.86 301.702L695.629 251.546C697.114 231.861 694.121 212.13 686.786 193.213Z" fill="black"/>
</g>
<path d="M239.57 389.332H185.398V411.247H239.57V389.332Z" fill="#EDEDF4"/>
<path d="M294.193 412.273H240.021V434.188H294.193V412.273Z" fill="#EDEDF4"/>
<path d="M348.817 389.332H294.645V411.247H348.817V389.332Z" fill="#EDEDF4"/>
<path d="M502.894 193.225C502.298 191.86 501.713 190.574 501.139 189.42V173.663L508.598 152.037C491.217 134.65 467.006 152.037 467.006 152.037C440.333 135.923 426.675 152.037 426.675 152.037C428.543 155.003 432.885 173.663 432.885 173.663V191.582C423.008 205.712 420.06 221.419 421.422 237.156L426.057 291.14C426.057 291.14 470.719 303.017 507.945 291.14L511.669 245.875C513.176 228.11 510.206 210.302 502.894 193.225Z" fill="#ECB706"/>
<path d="M349.266 434.873H295.097V456.787H349.266V434.873Z" fill="#EDEDF4"/>
<path d="M403.444 412.273H349.266V434.188H403.444V412.273Z" fill="#EDEDF4"/>
<path d="M458.063 389.332H403.894V411.247H458.063V389.332Z" fill="#EDEDF4"/>
<path d="M512.693 412.273H458.513V434.188H512.693V412.273Z" fill="#EDEDF4"/>
<path d="M567.311 389.332H513.143V411.247H567.311V389.332Z" fill="#EDEDF4"/>
<path d="M567.761 434.873H513.593V456.787H567.761V434.873Z" fill="#EDEDF4"/>
<path d="M621.942 412.273H567.761V434.188H621.942V412.273Z" fill="#EDEDF4"/>
<path d="M280.231 23.6375H226.058V45.5513H280.231V23.6375Z" fill="#EDEDF4"/>
<path d="M333.922 46.5789H279.748V68.4927H333.922V46.5789Z" fill="#EDEDF4"/>
<path d="M388.538 23.6375H334.372V45.5513H388.538V23.6375Z" fill="#EDEDF4"/>
<path d="M498.293 21.6086H444.113V43.5224H498.293V21.6086Z" fill="#EDEDF4"/>
<path d="M443.167 46.5789H388.988V68.4927H443.167V46.5789Z" fill="#EDEDF4"/>
<path d="M552.416 46.5789H498.247V68.4927H552.416V46.5789Z" fill="#EDEDF4"/>
<path d="M607.046 23.6375H552.866V45.5513H607.046V23.6375Z" fill="#EDEDF4"/>
<path d="M215.307 213.322C216.776 209.266 220.159 203.411 224.462 204.329C229.422 205.387 229.422 209.619 230.525 213.322C231.626 217.025 231.626 220.199 234.932 223.903C242.096 228.136 245.954 219.141 247.057 215.438C248.158 211.735 250.914 204.329 255.322 204.329C259.731 204.329 261.334 210.046 262.486 213.322C265.242 221.155 265.792 225.387 270.2 225.387C274.609 225.387 275.711 221.787 276.813 215.438C277.915 209.09 278.466 204.329 283.427 204.329C288.386 204.329 289.488 211.206 290.589 215.438C292.216 221.683 292.181 224.645 297.203 225.387C304.366 226.444 305.469 209.516 306.681 206.392C308.676 201.25 310.98 203.218 310.98 205.285" stroke="black" stroke-opacity="0.42"/>
<path d="M310.98 263.467C309.51 259.596 307.018 255.115 302.713 255.99C297.753 257.001 297.753 261.041 296.652 264.575C295.549 268.11 295.549 271.139 292.243 274.676C285.079 278.714 281.223 270.13 280.12 266.595C279.018 263.06 276.262 255.99 271.855 255.99C267.446 255.99 265.843 261.448 264.691 264.575C261.935 272.052 261.383 276.091 256.974 276.091C252.567 276.091 251.465 272.654 250.363 266.595C249.26 260.535 248.709 255.99 243.75 255.99C238.79 255.99 237.689 262.556 236.586 266.595C234.959 272.557 234.994 275.385 229.973 276.091C222.809 277.101 221.708 260.942 220.495 257.961C218.499 253.052 216.197 254.931 216.197 256.903" stroke="black" stroke-opacity="0.42"/>
<path opacity="0.3" d="M321.727 91.8718L161.471 205.84V228.57L361.462 91.8718H321.727Z" fill="white"/>
<path opacity="0.3" d="M161.471 260.648V306.531L513.593 91.8719L461.685 91.0923L161.471 260.648Z" fill="white"/>
<path d="M288.009 552.621L288.082 552.519L288.162 552.389L288.217 552.279C288.24 552.222 288.257 552.166 288.271 552.107C288.271 552.053 288.271 552.005 288.271 551.95C288.271 551.896 288.271 551.862 288.271 551.82C288.271 551.779 288.271 551.731 288.271 551.689C288.271 551.649 288.271 551.608 288.271 551.574C288.271 551.538 288.271 551.498 288.271 551.463C288.433 550.478 287.513 549.362 286.375 548.389C285.602 547.724 284.663 547.183 283.612 546.796C282.562 546.409 281.42 546.185 280.253 546.136C267.253 545.67 252.652 528.776 252.652 528.776L252.066 529.138C250.497 526.861 249.192 524.485 248.165 522.037H249.609V521.79V521.545L247.606 505.793L253.022 458.629C254.694 455.802 255.951 452.845 256.77 449.809C257.074 448.682 257.213 447.535 257.185 446.384C257.185 446.302 257.185 446.22 257.185 446.139C257.182 443.592 256.369 441.083 254.82 438.825L232.094 405.618C232.87 405.679 233.359 405.686 233.359 405.686C240.058 398.433 235.768 387.647 230.993 379.875C231.995 379.464 232.672 379.19 232.672 379.19C232.443 379.122 232.226 379.036 232.022 378.93L232.672 378.69C228.771 377.615 225.576 369.103 224.085 364.309L226.262 358.282C229.888 358.694 233.416 359.503 236.736 360.685C236.736 360.685 236.437 360.22 235.922 359.385L236.69 359.672C236.69 359.672 236.392 359.22 235.895 358.405C233.132 353.851 224.059 337.861 223.833 323.816C223.849 321.944 224.067 320.078 224.483 318.234C224.899 316.476 225.088 314.691 225.052 312.906C225.263 308.909 223.986 304.947 221.367 301.476C218.748 298.003 214.894 295.16 210.244 293.273C210.244 293.273 201.432 287.794 199.41 281.288C198.742 279.151 196.701 277.398 194.21 276.001C195.113 270.886 198.525 266.139 201.983 262.489C202.372 262.434 202.752 262.38 203.131 262.312C203.575 261.855 204.012 261.435 204.439 261.05C209.394 259.992 213.763 257.743 216.89 254.642C220.017 251.54 221.734 247.752 221.783 243.848C221.768 240.935 220.809 238.069 218.992 235.502C217.177 232.934 214.558 230.745 211.365 229.125C211.969 229.069 212.646 228.72 213.46 227.755C213.973 227.068 214.27 226.301 214.328 225.511C214.385 224.722 214.202 223.934 213.794 223.208C213.147 222.14 212.207 221.19 211.04 220.421C209.228 219.124 207.197 218.015 205 217.127C199.916 214.867 194.634 212.552 188.748 212.025C185.754 211.835 182.744 211.882 179.765 212.162L166.131 213.086C159.647 213.524 152.407 214.25 148.388 218.031C144.371 221.811 144.976 227.337 140.941 231.042C137.961 233.781 133.067 234.919 129.393 237.137C122.657 241.205 120.878 248.444 122.44 254.751C124.002 261.058 128.318 266.783 131.983 272.605C135.65 278.426 138.791 284.746 137.743 291.094C136.841 296.573 132.914 301.585 131.514 307.024C130.479 311.05 130.856 315.214 132.606 319.096C132.887 319.891 133.421 320.623 134.159 321.227C134.272 321.303 134.389 321.373 134.511 321.438C134.612 321.54 134.721 321.636 134.837 321.727C136.173 322.685 138.213 322.808 140.081 322.849C144.597 322.967 149.237 322.994 153.373 324.322C154.761 324.768 156.042 325.386 157.164 326.15C158.103 326.833 158.835 327.66 159.311 328.579C159.789 329.496 159.998 330.48 159.927 331.465C159.548 334.478 156.127 337.628 158.276 340.183H158.627C158.719 340.344 158.828 340.5 158.952 340.648C161.221 340.925 163.53 340.969 165.815 340.778C166.331 343.646 166.632 346.533 166.717 349.428C166.717 352.557 166.157 355.206 164.857 356.769H165.101H165.362H165.534C165.353 357.132 165.127 357.48 164.857 357.81L167.521 357.659C164.101 361.976 160.38 366.15 156.37 370.164C151.317 374.882 148.536 380.768 148.487 386.846C148.465 387.74 148.509 388.634 148.614 389.524C149.22 394.4 151.53 399.604 157.409 403.748C157.409 403.748 159.9 408.329 160.008 412.233C160.011 413.085 159.818 413.931 159.44 414.732V450.172L151.314 473.634C150.275 478.325 149.759 483.074 149.771 487.83C149.771 494.678 150.89 502.677 155.377 508.58L162.158 533.042L162.834 533.097V539.945C162.004 539.397 161.48 539.014 161.48 539.014L159.466 553.991H159.53L159.466 554.477C159.466 554.477 170.996 556.476 203.536 556.969H205.235H207.428H208.493H208.981H210.335H210.425L211.798 556.921H212.204L213.106 556.881H213.55L214.39 556.833H214.777L215.779 556.757H215.923L216.998 556.661H217.297L218.009 556.58L218.343 556.539L218.984 556.456L219.283 556.415L220.023 556.298H220.141L220.944 556.155L221.142 556.114L221.693 556.004L221.929 555.949L222.407 555.84L222.615 555.792L223.147 555.648H223.237L223.806 555.47L223.923 555.428L224.32 555.285L224.464 555.23L224.789 555.093L224.917 555.038L225.268 554.875H225.314L225.675 554.669H225.72L225.972 554.498L226.045 554.443L226.243 554.285L226.297 554.238L226.487 554.052C226.55 553.982 226.607 553.909 226.659 553.833C226.703 553.769 226.742 553.703 226.776 553.635V553.594C226.801 553.535 226.823 553.476 226.839 553.415V553.374C226.845 553.308 226.845 553.242 226.839 553.176C226.857 553.051 226.857 552.924 226.839 552.8C227.192 550.998 223.589 549.258 220.429 549.258C213.649 549.258 191.276 534.782 189.921 533.782C189.352 533.364 188.324 533.494 187.05 533.967C186.039 533.281 184.91 532.405 183.817 531.474C184.196 531.137 184.432 530.722 184.495 530.283L184.404 530.111C184.446 530.003 184.476 529.894 184.495 529.782C184.495 529.782 179.889 521.298 179.7 517.237C179.706 517.092 179.721 516.948 179.745 516.805L180.297 480.975C180.42 476.308 182.386 471.776 185.94 467.964C188.739 464.902 191.618 460.163 191.952 453.425L201.352 427.449C213.947 436.283 223.923 447.993 225.061 449.295C224.329 451.706 220.212 465.826 220.303 479.612C220.303 479.695 220.303 479.777 220.303 479.858C220.25 484.054 220.746 488.243 221.783 492.363C224.066 500.595 225.277 508.977 225.395 517.387C225.395 520.222 225.214 521.818 225.214 521.818C225.214 521.975 225.214 522.065 225.214 522.065C225.214 522.222 225.214 522.311 225.214 522.311H226.568V528.748L226.226 528.55L217.747 539.78L217.928 539.911L217.747 540.274C217.747 540.274 231.986 551.231 267.244 554.251L269.211 554.409L269.772 554.451L271.135 554.539H271.658L273.365 554.635L274.917 554.696H275.37H276.453H278.257H279.432H279.793H280.623H280.948L281.961 554.635H282.114L282.944 554.559H283.224L283.81 554.484L284.065 554.451L284.786 554.327H284.894L285.436 554.202L285.643 554.148L286.023 554.039L286.213 553.984L286.672 553.813L286.773 553.765L287.08 553.621L287.224 553.545L287.432 553.423L287.549 553.34C287.629 553.282 287.704 553.22 287.775 553.156L287.865 553.067L288.009 552.621Z" fill="url(#paint0_linear)"/>
<path d="M223.119 370.226C223.119 370.226 243.29 392.928 232.229 405.268C232.229 405.268 215.978 405.268 219.87 391.942C222.204 383.931 221.756 375.599 218.569 367.761L223.119 370.226Z" fill="#F7C4A7"/>
<path d="M164.559 526.187V543.951L185.379 545.431L193.189 536.527L191.238 534.063C191.238 534.063 182.129 528.652 180.179 523.715C178.229 518.777 164.559 526.187 164.559 526.187Z" fill="#F7C4A7"/>
<path opacity="0.1" d="M173.669 541.486C173.669 541.486 187.79 529.495 190.589 531.617C191.889 532.604 213.36 546.916 219.87 546.916C226.379 546.916 234.839 554.812 203.618 554.319C172.396 553.827 161.327 551.855 161.327 551.855L163.278 537.048C163.278 537.048 170.419 542.472 173.669 541.486Z" fill="black"/>
<path d="M173.669 541.979C173.669 541.979 187.79 529.988 190.589 532.11C191.889 533.097 213.36 547.409 219.87 547.409C226.379 547.409 234.839 555.305 203.618 554.812C172.396 554.319 161.327 552.348 161.327 552.348L163.259 537.555C163.259 537.555 170.419 542.966 173.669 541.979Z" fill="#F3B5B7"/>
<path d="M225.72 517.298V531.117L236.781 538.028L249.14 535.562L252.391 530.132C252.391 530.132 245.882 523.222 243.931 511.375L225.72 517.298Z" fill="#F7C4A7"/>
<path opacity="0.1" d="M234.83 532.077H242.64L250.766 526.892C250.766 526.892 264.779 543.595 277.247 544.054C278.373 544.108 279.473 544.333 280.482 544.715C281.49 545.099 282.386 545.634 283.115 546.287C286.375 549.15 287.874 553.347 264.75 551.327C230.93 548.396 217.269 537.555 217.269 537.555L225.395 526.447L234.83 532.077Z" fill="black"/>
<path d="M234.83 532.598H242.64L250.766 527.413C250.766 527.413 264.779 544.117 277.247 544.574C278.373 544.628 279.473 544.853 280.482 545.236C281.49 545.62 282.386 546.155 283.115 546.807C286.375 549.671 287.874 553.867 264.75 551.847C230.911 548.889 217.251 538.028 217.251 538.028L225.377 526.92L234.83 532.598Z" fill="#F3B5B7"/>
<path opacity="0.1" d="M222.468 361.837C222.468 361.837 226.37 377.629 231.579 379.107C231.579 379.107 220.52 383.059 222.468 387.003L213.359 354.926L224.419 355.912L222.468 361.837Z" fill="black"/>
<path d="M222.468 361.344C222.468 361.344 226.37 377.136 231.579 378.614C231.579 378.614 220.52 382.566 222.468 386.51L213.359 354.434L224.419 355.393L222.468 361.344Z" fill="#FC6681"/>
<path opacity="0.1" d="M222.468 361.344C222.468 361.344 226.37 377.136 231.579 378.614C231.579 378.614 220.52 382.566 222.468 386.51L213.359 354.434L224.419 355.393L222.468 361.344Z" fill="black"/>
<path opacity="0.1" d="M214.01 380.101L252.833 438.523C254.961 441.715 255.619 445.356 254.702 448.864C253.913 451.861 252.703 454.787 251.091 457.588L245.881 504.471L247.804 520.263H224.419C224.419 520.263 225.72 507.937 221.17 490.652C216.618 473.367 224.419 448.192 224.419 448.192C224.419 448.192 210.109 430.428 193.839 421.54C177.57 412.651 214.01 380.101 214.01 380.101Z" fill="black"/>
<path d="M214.01 379.601L252.833 438.023C254.961 441.214 255.619 444.855 254.702 448.364C253.913 451.362 252.703 454.287 251.091 457.088L245.899 503.998L247.804 519.751H224.419C224.419 519.751 225.72 507.423 221.17 490.138C216.618 472.853 224.419 447.679 224.419 447.679C224.419 447.679 210.109 429.915 193.839 421.026C177.57 412.137 214.01 379.601 214.01 379.601Z" fill="#575988"/>
<path opacity="0.05" d="M214.01 379.855L252.833 438.277C254.961 441.468 255.619 445.109 254.702 448.617C253.913 451.616 252.703 454.541 251.091 457.342L245.881 504.224L247.804 520.018H224.419C224.419 520.018 225.72 507.69 221.17 490.405C216.618 473.12 224.419 447.946 224.419 447.946C224.419 447.946 210.109 430.183 193.839 421.293C177.57 412.404 214.01 379.855 214.01 379.855Z" fill="black"/>
<path opacity="0.1" d="M172.369 353.941C172.369 353.941 164.315 364.767 158.366 370.596C152.869 375.873 150.207 382.532 150.916 389.236C151.495 394.03 153.715 399.201 159.359 403.296C159.359 403.296 163.258 410.699 161.309 414.65V449.692L153.499 472.887C153.499 472.887 148.289 494.603 157.4 506.943L163.909 531.124C163.909 531.124 184.729 533.097 185.379 528.166C185.379 528.166 180.169 518.298 180.865 514.839L181.388 479.414C181.497 474.81 183.379 470.333 186.806 466.532C189.514 463.512 192.223 458.821 192.584 452.15L227.038 353.941H172.369Z" fill="black"/>
<path d="M172.369 353.448C172.369 353.448 164.315 364.275 158.366 370.103C152.869 375.38 150.207 382.039 150.916 388.743C151.495 393.537 153.715 398.708 159.359 402.803C159.359 402.803 163.258 410.206 161.309 414.157V449.214L153.499 472.408C153.499 472.408 148.289 494.124 157.4 506.464L163.909 530.645C163.909 530.645 184.729 532.617 185.379 527.687C185.379 527.687 180.169 517.819 180.865 514.36L181.388 478.934C181.497 474.332 183.379 469.853 186.806 466.053C189.514 463.033 192.223 458.342 192.584 451.672L227.038 353.448H172.369Z" fill="#575988"/>
<path d="M219.22 389.476C219.22 389.476 223.733 411.685 207.482 418.595C207.482 418.595 200.972 415.17 210.081 403.789L210.731 388.49L219.22 389.476Z" fill="#F7C4A7"/>
<path opacity="0.1" d="M264.769 550.862C234.018 548.17 219.933 538.96 217.622 537.301L217.269 538.028C217.269 538.028 230.93 548.882 264.769 551.847C282.076 553.36 285.589 551.389 284.893 549.108C284.244 550.909 279.504 552.148 264.769 550.862Z" fill="black"/>
<path opacity="0.1" d="M203.564 553.306C174.672 552.847 163.015 551.122 161.462 550.868L161.273 552.32C161.273 552.32 172.333 554.292 203.564 554.786C223.003 555.093 227.038 552.148 225.793 549.882C224.718 551.787 218.957 553.573 203.564 553.306Z" fill="black"/>
<path opacity="0.1" d="M164.234 403.543C164.234 403.543 179.854 403.543 184.404 400.584C188.955 397.626 200.024 400.584 200.024 400.584" fill="black"/>
<path opacity="0.1" d="M160.334 507.183C151.224 494.856 156.433 473.127 156.433 473.127L164.243 449.933V414.889C166.194 410.938 162.293 403.535 162.293 403.535C156.65 399.427 154.428 394.297 153.851 389.476C153.141 382.771 155.803 376.113 161.299 370.835C167.25 365.007 175.303 354.18 175.303 354.18H227.182L227.354 353.687H172.694C172.694 353.687 164.64 364.514 158.691 370.342C153.175 375.616 150.498 382.278 151.196 388.989C151.775 393.783 153.995 398.954 159.638 403.049C159.638 403.049 163.539 410.452 161.589 414.404V449.445L153.778 472.641C153.778 472.641 148.569 494.357 157.68 506.698L164.189 530.878C164.189 530.878 165.173 530.974 166.708 531.064L160.334 507.183Z" fill="black"/>
<path d="M210.109 256.717C210.109 256.717 195.14 267.051 194.535 278.925C193.929 290.799 169.155 276.46 169.155 276.46C169.155 276.46 188.024 270.042 186.725 251.292L210.109 256.717Z" fill="#F7C4A7"/>
<path opacity="0.1" d="M183.429 273.988C183.429 273.988 163.258 268.064 159.35 293.237L163.864 326.309C163.864 326.309 171.673 351.475 166.465 357.892C166.465 357.892 219.825 354.468 235.435 360.85C235.435 360.85 219.816 336.197 223.698 318.898C227.581 301.6 210.036 295.21 210.036 295.21C210.036 295.21 201.576 289.779 199.628 283.363C197.677 276.946 183.429 273.988 183.429 273.988Z" fill="black"/>
<path d="M183.429 273.002C183.429 273.002 163.259 267.051 159.322 292.245L163.043 319.254C163.539 322.85 164.261 326.431 165.181 329.978C167.151 337.573 170.274 352.222 166.482 356.898C166.482 356.898 219.842 353.475 235.452 359.857C235.452 359.857 219.832 335.204 223.715 317.906C227.597 300.606 210.055 294.218 210.055 294.218C210.055 294.218 201.595 288.787 199.644 282.37C197.695 275.953 183.429 273.002 183.429 273.002Z" fill="#FC6681"/>
<path opacity="0.1" d="M179.53 305.572L202.95 371.211C202.95 371.211 212.06 387.004 208.158 391.449C208.158 391.449 218.569 395.4 223.129 391.449C227.688 387.497 213.368 342.093 213.368 342.093L204.909 305.572H179.53Z" fill="black"/>
<path d="M180.18 305.078L203.564 370.718C203.564 370.718 212.673 386.51 208.773 390.955C208.773 390.955 219.182 394.907 223.743 390.955C228.302 387.004 213.983 341.6 213.983 341.6L205.523 305.078H180.18Z" fill="#FC6681"/>
<path opacity="0.1" d="M205.225 316.186C205.225 316.186 211.735 330.499 214.984 331.978C218.235 333.458 216.284 344.305 216.284 344.305" fill="black"/>
<path opacity="0.1" d="M186.355 257.949C189.903 259.593 193.28 264.112 197.74 264.112C199.598 264.111 201.45 263.945 203.256 263.613C205.311 261.494 207.604 259.513 210.109 257.695L186.689 252.265C186.924 255.771 187.311 255.265 186.355 257.949Z" fill="black"/>
<path d="M197.749 263.127C210.684 263.127 221.17 255.172 221.17 245.362C221.17 235.551 210.684 227.597 197.749 227.597C184.814 227.597 174.328 235.551 174.328 245.362C174.328 255.172 184.814 263.127 197.749 263.127Z" fill="#F7C4A7"/>
<g opacity="0.1">
<path opacity="0.1" d="M169.905 356.707C173.516 351.838 170.409 337.477 168.469 329.998C167.565 326.452 166.826 322.871 166.329 319.275L162.608 292.265C165.047 276.562 173.813 272.96 180.062 272.474C174.148 272.029 162.257 273.55 159.359 292.265L163.078 319.275C163.575 322.871 164.298 326.452 165.218 329.998C167.186 337.594 170.31 352.242 166.519 356.92C166.546 356.899 167.756 356.824 169.905 356.707Z" fill="black"/>
<path opacity="0.1" d="M198.398 355.975C212.845 356.029 228.194 356.878 235.48 359.864C235.48 359.864 235.2 359.419 234.722 358.611C225.91 356.454 211.446 355.927 198.398 355.975Z" fill="black"/>
</g>
<path opacity="0.1" d="M205.586 241.233C203.564 245.136 199.953 248.334 196.241 251.422C194.174 253.162 192.043 254.922 190.823 257.065C189.843 259 189.235 261.031 189.019 263.099C187.574 271.556 186.229 280.569 191.103 288.246C192.467 290.396 194.301 292.395 195.203 294.676C196.845 298.853 195.203 303.353 193.017 307.401C190.034 313.031 186.158 318.365 181.479 323.287C178.77 326.13 175.719 328.965 174.753 332.39C174.102 334.683 174.347 337.279 172.433 339.12C169.877 341.58 164.965 341.387 160.875 340.963C158.817 338.415 162.094 335.32 162.455 332.348C162.861 329.081 159.475 326.102 155.513 324.816C151.549 323.528 147.08 323.446 142.755 323.363C140.949 323.315 139.007 323.199 137.725 322.253C137.013 321.651 136.501 320.928 136.236 320.145C134.608 316.341 134.266 312.289 135.243 308.359C136.588 302.982 140.361 298.045 141.22 292.608C142.222 286.307 139.207 280.055 135.685 274.302C132.165 268.549 128.019 262.894 126.52 256.654C125.022 250.415 126.729 243.266 133.193 239.239C136.723 237.04 141.41 235.911 144.272 233.213C148.145 229.563 147.621 224.057 151.422 220.366C155.223 216.675 162.257 215.915 168.441 215.476L181.524 214.565C184.384 214.289 187.274 214.242 190.147 214.429C195.799 214.956 200.873 217.236 205.749 219.475C208.845 220.893 212.123 222.468 213.54 224.995C213.932 225.715 214.108 226.491 214.051 227.269C213.995 228.046 213.708 228.805 213.215 229.488C210.813 232.418 209.676 229.59 207.799 230.255C204.991 231.18 207.094 238.287 205.586 241.233Z" fill="black"/>
<path d="M204.935 240.74C202.959 244.622 199.274 247.841 195.599 250.923C193.532 252.661 191.402 254.422 190.183 256.565C189.201 258.5 188.594 260.532 188.378 262.598C186.932 271.057 185.587 280.069 190.462 287.746C191.827 289.895 193.658 291.895 194.562 294.177C196.204 298.354 194.562 302.852 192.376 306.9C189.392 312.53 185.517 317.865 180.838 322.788C178.13 325.631 175.078 328.465 174.113 331.889C173.462 334.183 173.705 336.778 171.792 338.621C169.236 341.08 164.324 340.888 160.235 340.463C158.176 337.916 161.454 334.82 161.814 331.848C162.22 328.581 158.835 325.603 154.872 324.315C150.907 323.027 146.437 322.946 142.114 322.863C140.307 322.816 138.367 322.699 137.084 321.754C136.372 321.152 135.861 320.428 135.595 319.644C133.967 315.841 133.625 311.788 134.601 307.858C135.947 302.483 139.721 297.545 140.578 292.108C141.581 285.808 138.566 279.556 135.045 273.802C131.522 268.05 127.379 262.393 125.879 256.155C124.381 249.916 126.087 242.766 132.552 238.74C136.083 236.541 140.769 235.412 143.631 232.713C147.504 229.064 146.98 223.557 150.781 219.866C154.583 216.174 161.616 215.414 167.8 214.977L180.883 214.066C183.743 213.788 186.634 213.742 189.506 213.928C195.158 214.456 200.232 216.735 205.108 218.976C208.204 220.394 211.482 221.967 212.899 224.496C213.292 225.215 213.466 225.992 213.41 226.769C213.354 227.547 213.068 228.305 212.574 228.988C210.172 231.919 209.035 229.09 207.157 229.755C204.339 230.686 206.443 237.774 204.935 240.74Z" fill="#965D7B"/>
<path d="M467.67 161.549C466.163 161.549 464.936 160.414 464.936 159.014C464.936 157.613 466.163 156.479 467.67 156.479C469.189 156.479 470.415 157.613 470.415 159.014C470.415 160.414 469.189 161.549 467.67 161.549Z" fill="#6B5A1F"/>
<path d="M464.936 172.197C464.936 173.596 466.163 174.732 467.67 174.732C469.189 174.732 470.415 173.596 470.415 172.197C470.415 170.796 469.189 169.662 467.67 169.662C466.163 169.662 464.936 170.796 464.936 172.197Z" fill="#6B5A1F"/>
<path d="M467.67 186.9C466.163 186.9 464.936 185.766 464.936 184.365C464.936 182.965 466.163 181.83 467.67 181.83C469.189 181.83 470.415 182.965 470.415 184.365C470.415 185.766 469.189 186.9 467.67 186.9Z" fill="#6B5A1F"/>
<path d="M429.87 218.336L438.634 203.125L446.846 218.336L438.634 231.012L429.87 218.336Z" fill="#C64EFF"/>
<path d="M434.798 218.336L438.634 211.238L442.47 218.336L438.634 223.406L434.798 218.336Z" fill="#FF9078"/>
<path d="M455.07 251.8L463.834 236.589L472.057 251.8L463.834 264.475L455.07 251.8Z" fill="#C64EFF"/>
<path d="M460.009 251.8L463.834 244.702L467.67 251.8L463.834 256.87L460.009 251.8Z" fill="#FF9078"/>
<path d="M486.851 278.165L495.615 262.955L503.828 278.165L495.615 290.841L486.851 278.165Z" fill="#C64EFF"/>
<path d="M491.779 278.165L495.615 271.068L499.451 278.165L495.615 283.236L491.779 278.165Z" fill="#FF9078"/>
<path d="M470.415 213.266L479.179 198.055L487.391 213.266L479.179 225.941L470.415 213.266Z" fill="#C64EFF"/>
<path d="M475.343 213.266L479.179 206.167L483.015 213.266L479.179 218.336L475.343 213.266Z" fill="#FF9078"/>
<path d="M429.87 277.151L438.634 261.941L446.846 277.151L438.634 289.827L429.87 277.151Z" fill="#C64EFF"/>
<path d="M434.798 277.151L438.634 270.053L442.47 277.151L438.634 282.222L434.798 277.151Z" fill="#FF9078"/>
<path d="M491.239 239.632L499.991 224.421L508.215 239.632L499.991 252.308L491.239 239.632Z" fill="#C64EFF"/>
<path d="M496.166 239.632L499.991 232.533L503.828 239.632L499.991 244.702L496.166 239.632Z" fill="#FF9078"/>
<path d="M553.069 0.313477H498.9V22.2273H553.069V0.313477Z" fill="#EDEDF4"/>
<path d="M443.494 1.32764H389.325V23.2416H443.494V1.32764Z" fill="#EDEDF4"/>
<path opacity="0.1" d="M303.92 624.405C471.596 624.405 607.53 597.02 607.53 563.237C607.53 529.455 471.596 502.069 303.92 502.069C136.243 502.069 0.315674 529.455 0.315674 563.237C0.315674 597.02 136.243 624.405 303.92 624.405Z" fill="#F9A826"/>
<defs>
<linearGradient id="paint0_linear" x1="205.143" y1="557.032" x2="205.143" y2="212.046" gradientUnits="userSpaceOnUse">
<stop stop-color="#808080" stop-opacity="0.25"/>
<stop offset="0.54" stop-color="#808080" stop-opacity="0.12"/>
<stop offset="1" stop-color="#808080" stop-opacity="0.1"/>
</linearGradient>
</defs>
</svg>
