<svg width="416" height="370" viewBox="0 0 416 370" fill="none" xmlns="http://www.w3.org/2000/svg">
<g clip-path="url(#clip0)">
<path d="M416 359.79C413.408 373.993 277.33 372.801 277.537 359.789C280.129 345.586 416.206 346.778 416 359.79Z" fill="#E6E6E6"/>
<path d="M261.774 323.577C261.193 326.761 230.691 326.494 230.737 323.577C231.318 320.393 261.82 320.661 261.774 323.577Z" fill="#E6E6E6"/>
<path d="M340.508 116.615C345.757 116.615 350.011 111.886 350.011 106.053C350.011 100.221 345.757 95.4922 340.508 95.4922C335.26 95.4922 331.006 100.221 331.006 106.053C331.006 111.886 335.26 116.615 340.508 116.615Z" fill="#2F2E41"/>
<path d="M331.019 101.759L336.967 100.139C339.237 100.139 341.479 99.5782 343.531 98.4969C345.582 97.4156 347.392 95.841 348.828 93.8871C350.265 91.9331 351.293 89.6486 351.837 87.1989C352.382 84.7493 352.43 82.1957 351.977 79.723C351.977 73.8216 349.868 68.1619 346.113 63.9889C342.358 59.816 337.266 57.4717 331.956 57.4717H331.956C329.327 57.4717 326.723 58.0472 324.294 59.1655C321.865 60.2837 319.658 61.9227 317.798 63.9889C315.939 66.0551 314.464 68.5081 313.458 71.2078C312.452 73.9074 311.934 76.8009 311.934 79.723V79.723C311.168 82.7005 311.119 85.8495 311.792 88.8547C312.464 91.86 313.836 94.6161 315.768 96.8474C317.7 99.0787 320.126 100.707 322.803 101.569C325.479 102.431 328.312 102.497 331.019 101.759Z" fill="#2F2E41"/>
<path d="M369.277 169.445L354.573 146.186L346.59 162.662L355.713 174.491L369.277 169.445Z" fill="#575A89"/>
<path d="M361.605 167.098C361.605 167.098 366.167 164.985 368.827 168.787C371.488 172.589 376.05 180.616 374.529 181.883C373.009 183.151 368.067 178.081 368.067 178.081L361.605 167.098Z" fill="#575A89"/>
<path d="M374.186 187.71C375.663 186.401 375.058 182.826 372.833 179.725C370.608 176.623 367.607 175.17 366.13 176.479C364.652 177.788 365.258 181.363 367.483 184.465C369.707 187.566 372.708 189.019 374.186 187.71Z" fill="#ECB706" fill-opacity="0.55"/>
<path d="M376.43 225.818C376.43 225.818 375.669 252.855 373.009 268.486C370.348 284.116 374.529 340.302 374.529 340.302L366.166 344.527L360.845 338.19C360.845 338.19 362.745 326.784 360.085 318.757C357.424 310.731 356.283 276.09 356.283 276.09L351.722 229.62L376.43 225.818Z" fill="#ECB706" fill-opacity="0.55"/>
<path d="M345.26 233.845L321.313 282.427L299.646 326.784V336.078L288.622 332.276L292.423 322.56C292.423 322.56 294.324 284.539 308.008 269.753L319.792 232.155L345.26 233.845Z" fill="#ECB706" fill-opacity="0.55"/>
<path d="M359.514 168.576H363.696C363.696 168.576 386.503 203.217 385.363 224.34L352.672 239.125L351.532 236.168C351.532 236.168 324.544 241.66 317.701 235.323L327.204 181.25L327.965 173.646L359.514 168.576Z" fill="#2F2E41"/>
<path d="M369.968 339.88C369.968 339.88 364.646 332.276 371.108 331.854C377.57 331.431 377.57 336.078 377.57 336.078L392.015 347.062C392.015 347.062 415.962 356.778 398.857 359.735C398.857 359.735 391.635 361.425 382.512 357.623C377.032 355.336 371.256 354.052 365.406 353.821C365.406 353.821 357.044 353.399 357.044 348.752C357.044 344.105 361.123 336.078 361.123 336.078C361.123 336.078 367.687 341.147 369.968 339.88Z" fill="#2F2E41"/>
<path d="M287.862 329.319C287.862 329.319 300.786 326.362 301.166 331.853C301.546 337.345 301.166 346.639 301.166 346.639C301.166 346.639 298.125 350.864 298.885 353.821C299.646 356.778 296.985 366.072 287.862 364.805C278.739 363.537 281.78 349.174 281.78 349.174L287.862 332.698V329.319Z" fill="#2F2E41"/>
<path d="M329.295 95.9146C336.328 95.9146 342.029 89.5785 342.029 81.7625C342.029 73.9465 336.328 67.6104 329.295 67.6104C322.262 67.6104 316.561 73.9465 316.561 81.7625C316.561 89.5785 322.262 95.9146 329.295 95.9146Z" fill="#ECB706" fill-opacity="0.55"/>
<path d="M337.848 89.5779L338.038 113.869L322.453 107.955C322.453 107.955 324.353 94.0136 323.973 92.7463L337.848 89.5779Z" fill="#ECB706" fill-opacity="0.55"/>
<path d="M340.699 106.687C340.699 106.687 324.353 100.35 322.453 101.195C320.552 102.04 319.792 106.687 319.792 106.687C319.792 106.687 310.669 104.575 309.529 111.334C308.388 118.093 316.751 147.665 316.751 147.665L325.114 164.985C325.114 164.985 320.932 172.167 328.155 174.702C335.377 177.236 361.605 169.21 361.605 169.21C361.605 169.21 366.166 163.296 361.605 163.296C361.605 163.296 360.085 157.804 358.564 156.536C357.044 155.269 359.704 153.157 358.184 152.734C356.664 152.312 356.664 151.467 356.664 151.467C356.664 151.467 364.266 140.061 357.424 130.767C350.582 121.473 349.631 112.813 346.21 111.545C342.789 110.278 340.699 106.687 340.699 106.687Z" fill="#575A89"/>
<path d="M338.514 206.341C339.224 204.395 337.12 201.608 333.813 200.117C330.506 198.625 327.249 198.993 326.538 200.939C325.828 202.884 327.932 205.671 331.239 207.162C334.546 208.654 337.803 208.286 338.514 206.341Z" fill="#ECB706" fill-opacity="0.55"/>
<path d="M315.231 110.067H309.872C309.872 110.067 294.324 151.889 298.885 164.985C303.447 178.081 320.172 200.894 320.172 200.894C320.172 200.894 325.494 211.455 329.295 211.455C333.096 211.455 337.277 196.247 337.277 196.247L325.114 190.332L310.669 160.761L317.511 137.948L315.231 110.067Z" fill="#575A89"/>
<path opacity="0.2" d="M356.854 151.256L365.216 167.731L363.696 168.576L356.854 151.256Z" fill="black"/>
<path opacity="0.2" d="M340.868 188.328L340.132 188.539L351.172 236.271L351.909 236.061L340.868 188.328Z" fill="black"/>
<path d="M313.9 76.0592L316.181 71.4122L319.602 73.9615C319.954 74.501 320.418 74.9378 320.955 75.2346C321.492 75.5314 322.085 75.6794 322.685 75.666L334.629 75.398C335.166 75.386 335.694 75.2524 336.182 75.0054C336.67 74.7583 337.107 74.4031 337.468 73.9615C338.407 74.3483 339.248 74.9812 339.92 75.8065C340.592 76.6317 341.074 77.625 341.327 78.7019L342.789 84.9306V63.8081H319.982L313.9 76.0592Z" fill="#2F2E41"/>
<path d="M214.531 0H0V307.173H214.531V0Z" fill="#E6E6E6"/>
<path d="M208.572 39.4216H5.95918V116.373H208.572V39.4216Z" fill="white"/>
<path d="M208.572 129.618H5.95918V206.569H208.572V129.618Z" fill="white"/>
<path d="M208.572 219.815H5.95918V296.766H208.572V219.815Z" fill="white"/>
<path d="M203.18 18.2917C206.314 18.2917 208.855 15.4677 208.855 11.9842C208.855 8.5007 206.314 5.67676 203.18 5.67676C200.045 5.67676 197.504 8.5007 197.504 11.9842C197.504 15.4677 200.045 18.2917 203.18 18.2917Z" fill="white"/>
<path d="M24.5462 174.401C27.6806 174.401 30.2216 171.577 30.2216 168.094C30.2216 164.61 27.6806 161.786 24.5462 161.786C21.4117 161.786 18.8707 164.61 18.8707 168.094C18.8707 171.577 21.4117 174.401 24.5462 174.401Z" fill="#E6E6E6"/>
<path d="M94.3538 163.048H41.0049V173.14H94.3538V163.048Z" fill="#E6E6E6"/>
<path d="M125.427 174.717C128.561 174.717 131.102 171.893 131.102 168.409C131.102 164.926 128.561 162.102 125.427 162.102C122.292 162.102 119.751 164.926 119.751 168.409C119.751 171.893 122.292 174.717 125.427 174.717Z" fill="#E6E6E6"/>
<path d="M195.234 163.363H141.885V173.455H195.234V163.363Z" fill="#E6E6E6"/>
<path d="M206.135 9.59168L205.333 8.69971L203.18 11.0925L201.027 8.69971L200.224 9.59168L202.377 11.9844L200.224 14.3766L201.027 15.2686L203.18 12.8758L205.333 15.2686L206.135 14.3766L203.983 11.9844L206.135 9.59168Z" fill="#E6E6E6"/>
<path d="M24.5462 84.2045C27.6806 84.2045 30.2216 81.3806 30.2216 77.8971C30.2216 74.4136 27.6806 71.5896 24.5462 71.5896C21.4117 71.5896 18.8707 74.4136 18.8707 77.8971C18.8707 81.3806 21.4117 84.2045 24.5462 84.2045Z" fill="#E6E6E6"/>
<path d="M195.66 72.2205H51.5044V82.3124H195.66V72.2205Z" fill="#E6E6E6"/>
<path d="M172.107 72.2205H42.7075V82.3124H172.107V72.2205Z" fill="#ECB706"/>
<path d="M24.5462 264.598C27.6806 264.598 30.2216 261.774 30.2216 258.291C30.2216 254.807 27.6806 251.983 24.5462 251.983C21.4117 251.983 18.8707 254.807 18.8707 258.291C18.8707 261.774 21.4117 264.598 24.5462 264.598Z" fill="#E6E6E6"/>
<path d="M195.66 252.614H51.5044V262.706H195.66V252.614Z" fill="#E6E6E6"/>
<path d="M123.724 252.614H42.7075V262.706H123.724V252.614Z" fill="#ECB706"/>
<path d="M57.8892 163.048H41.0049V173.14H57.8892V163.048Z" fill="#ECB706"/>
<path d="M175.37 163.363H141.885V173.455H175.37V163.363Z" fill="#ECB706"/>
<path d="M258.012 310.04C258.099 319.979 252.813 323.506 246.256 323.577C246.103 323.579 245.952 323.579 245.801 323.576C245.497 323.572 245.196 323.56 244.898 323.54C238.976 323.138 234.345 319.54 234.264 310.298C234.18 300.732 245.074 288.542 245.891 287.64L245.893 287.64C245.924 287.605 245.94 287.588 245.94 287.588C245.94 287.588 257.924 300.102 258.012 310.04Z" fill="#E6E6E6"/>
</g>
<defs>
<clipPath id="clip0">
<rect width="416" height="370" fill="white"/>
</clipPath>
</defs>
</svg>
