<svg width="1340" height="645" viewBox="0 0 1340 645" fill="none" xmlns="http://www.w3.org/2000/svg">
<g clip-path="url(#clip0)">
<path opacity="0.1" d="M273.7 109.052C277.827 101.653 281.508 93.8159 291.065 88.233C343.457 57.6529 461.702 30.1033 528.726 27.5177C622.895 23.9122 723.937 24.085 808.475 3.55205C869.998 -11.4345 952.145 28.267 1021.08 27.5177C1090.02 26.7684 1144.73 -2.71981 1207.59 10.9148C1285.27 27.8064 1261.56 22.3388 1340 38.0941V576.563C1189.31 615.83 1283.37 619.147 1129.25 654.04C1029.7 676.715 799.303 602.43 692.845 588.83C648.113 583.05 589.43 581.802 550.387 595.374C533.784 601.145 521.774 610.261 506.9 617.321C483.995 628.137 456.387 629.901 428.016 635.269C395.554 641.451 348.461 636.53 314.251 635.269C275.413 633.846 258.067 628.576 224.731 617.321C175.004 600.536 120.762 591.909 74.0209 572.685C44.0505 560.356 12.8902 546.041 3.70574 525.857C-11.1865 493.148 36.8926 462.899 54.1088 430.52C69.2428 402.069 58.9613 369.744 27.2061 345.973C12.035 334.575 8.33514 314.165 3.70572 300.226C-4.921 274.28 26.3881 265.049 65.7846 250.573C158.838 216.414 240.532 168.54 273.7 109.052Z" fill="#F9A826"/>
</g>
<defs>
<clipPath id="clip0">
<rect width="1340" height="645" fill="white"/>
</clipPath>
</defs>
</svg>
