<svg width="545" height="165" viewBox="0 0 545 165" fill="none" xmlns="http://www.w3.org/2000/svg">
<g clip-path="url(#clip0)">
<g opacity="0.3">
<path opacity="0.3" d="M23.3035 164.787C23.0574 157.165 27.4427 151.484 31.584 148.093C35.7253 144.702 40.4961 141.534 42.4058 134.583C45.1504 124.593 40.4548 113.759 36.8688 104.525C34.2085 97.6719 32.0494 90.3229 30.4368 82.6308C29.7905 79.5468 29.2276 76.3489 29.2677 73.0863C29.3253 68.3872 30.6183 64.0001 31.9017 59.8048C36.1769 45.8297 40.6503 32.0263 45.3219 18.3947" stroke="#3F3D56" stroke-miterlimit="10"/>
<path opacity="0.3" d="M50.7131 2.85277L46.2047 4.97975L46.5177 1.53341C46.1208 1.49124 45.718 1.46741 45.3091 1.46741C39.4352 1.46741 34.6735 5.9367 34.6735 11.4498C34.6735 16.963 39.4352 21.4323 45.3091 21.4323C51.1829 21.4323 55.9446 16.963 55.9446 11.4498C55.9446 7.78893 53.8438 4.59017 50.7131 2.85277Z" fill="#FF6584"/>
<path opacity="0.3" d="M50.7131 1.74361L46.2047 3.87059L46.5177 0.424251C46.1208 0.382074 45.718 0.358246 45.3091 0.358246C39.4352 0.358246 34.6735 4.82754 34.6735 10.3407C34.6735 15.8538 39.4352 20.3231 45.3091 20.3231C51.1829 20.3231 55.9446 15.8538 55.9446 10.3407C55.9446 6.67977 53.8438 3.48101 50.7131 1.74361Z" stroke="#3F3D56" stroke-miterlimit="10"/>
<path opacity="0.3" d="M37.5026 129.666L32.9942 131.793L33.3073 128.347C32.9104 128.305 32.5076 128.281 32.0986 128.281C26.2248 128.281 21.4631 132.75 21.4631 138.264C21.4631 143.777 26.2248 148.246 32.0986 148.246C37.9724 148.246 42.7341 143.777 42.7341 138.264C42.7341 134.603 40.6333 131.404 37.5026 129.666Z" fill="#FF6584"/>
<path opacity="0.3" d="M37.5026 128.557L32.9942 130.684L33.3073 127.238C32.9104 127.196 32.5076 127.172 32.0986 127.172C26.2248 127.172 21.4631 131.641 21.4631 137.154C21.4631 142.668 26.2248 147.137 32.0986 147.137C37.9724 147.137 42.7341 142.668 42.7341 137.154C42.7341 133.494 40.6333 130.295 37.5026 128.557Z" stroke="#3F3D56" stroke-miterlimit="10"/>
<path opacity="0.3" d="M53.176 103.047L48.6676 105.174L48.9807 101.727C48.5838 101.685 48.1809 101.661 47.772 101.661C41.8981 101.661 37.1365 106.131 37.1365 111.644C37.1365 117.157 41.8981 121.626 47.772 121.626C53.6458 121.626 58.4075 117.157 58.4075 111.644C58.4075 107.983 56.3067 104.784 53.176 103.047Z" fill="#FF6584"/>
<path opacity="0.3" d="M53.176 101.938L48.6676 104.065L48.9807 100.618C48.5838 100.576 48.1809 100.552 47.772 100.552C41.8981 100.552 37.1365 105.022 37.1365 110.534C37.1365 116.048 41.8981 120.517 47.772 120.517C53.6458 120.517 58.4075 116.048 58.4075 110.534C58.4075 106.874 56.3067 103.675 53.176 101.938Z" stroke="#3F3D56" stroke-miterlimit="10"/>
<path opacity="0.3" d="M34.6432 35.1184L30.0397 33.6478L31.263 30.8081C30.9206 30.4739 30.5679 30.1519 30.2032 29.8464C24.9647 25.459 19.4936 25.8883 17.9833 30.8051C16.473 35.7219 19.4953 43.2645 24.7338 47.6519C29.9724 52.0392 35.4434 51.61 36.9537 46.6931C37.9566 43.4282 36.9593 39.0062 34.6432 35.1184Z" fill="#FF6584"/>
<path opacity="0.3" d="M34.9487 34.1292L30.3452 32.6586L31.5685 29.8189C31.2261 29.4848 30.8733 29.1626 30.5086 28.8572C25.2701 24.4698 19.799 24.8991 18.2887 29.8159C16.7784 34.7328 19.8008 42.2752 25.0393 46.6626C30.2778 51.05 35.7489 50.6208 37.2592 45.7039C38.262 42.439 37.2647 38.017 34.9487 34.1292Z" stroke="#3F3D56" stroke-miterlimit="10"/>
<path opacity="0.3" d="M44.719 73.9387L40.1155 72.4686L41.3388 69.6287C40.9964 69.2944 40.6436 68.9725 40.2789 68.6668C35.0404 64.2796 29.5694 64.7086 28.0591 69.6256C26.5488 74.5426 29.5711 82.0853 34.8096 86.4724C40.0481 90.8596 45.5192 90.4306 47.0295 85.5136C48.0324 82.2491 47.035 77.8264 44.719 73.9387Z" fill="#FF6584"/>
<path opacity="0.3" d="M45.0228 72.9499L40.4193 71.4793L41.6427 68.6394C41.3002 68.305 40.9475 67.9831 40.5828 67.678C35.3442 63.2903 29.8732 63.7199 28.3629 68.6363C26.8526 73.5533 29.8749 81.096 35.1134 85.4831C40.352 89.8709 45.823 89.4412 47.3333 84.5249C48.3362 81.2597 47.3389 76.8377 45.0228 72.9499Z" stroke="#3F3D56" stroke-miterlimit="10"/>
</g>
<g opacity="0.3">
<path opacity="0.3" d="M496.674 91.3677C497.804 92.2344 499.068 92.7113 500.35 92.7605C501.637 92.8097 502.913 92.4305 504.08 91.6522C505.247 90.8739 506.268 89.7177 507.072 88.275C507.87 86.833 508.433 85.1431 508.699 83.3399C508.965 81.5361 508.941 79.6682 508.614 77.8825C508.294 76.0974 507.689 74.443 506.843 73.0508C506.002 71.6586 504.944 70.5665 503.759 69.8598C502.568 69.1537 501.281 68.8523 499.999 68.9806L499.606 75.0899L498.119 69.4837C496.021 70.4083 494.268 72.4885 493.24 75.2668C492.877 76.2393 492.611 77.281 492.454 78.3601C492.073 80.8911 492.279 83.5298 493.04 85.8772C493.802 88.2246 495.078 90.1523 496.674 91.3677Z" fill="#57B894"/>
<path opacity="0.3" d="M499.63 163.755C499.431 158.451 502.949 154.498 506.268 152.138C509.587 149.778 513.408 147.574 514.944 142.737C517.138 135.786 513.378 128.247 510.506 121.821C508.372 117.052 506.643 111.939 505.349 106.586C504.829 104.439 504.376 102.214 504.412 99.944C504.455 96.6738 505.494 93.621 506.522 90.7021C509.95 80.977 513.535 71.3722 517.277 61.8864" stroke="#3F3D56" stroke-miterlimit="10"/>
<path opacity="0.3" d="M497.166 89.8739C498.302 90.7407 499.56 91.2176 500.848 91.2668C502.135 91.3166 503.411 90.9368 504.578 90.1585C505.745 89.3802 506.766 88.2239 507.565 86.7819C508.369 85.3392 508.925 83.6494 509.191 81.8462C509.463 80.0424 509.433 78.1745 509.112 76.3894C508.792 74.6036 508.187 72.9499 507.341 71.5577C506.5 70.1655 505.442 69.0727 504.251 68.3666C503.066 67.6599 501.779 67.3592 500.497 67.4869L500.098 73.5962L498.611 67.9899C496.513 68.9152 494.76 70.9954 493.732 73.7737C493.369 74.7456 493.103 75.7873 492.946 76.8663C492.565 79.3974 492.777 82.0367 493.538 84.3841C494.3 86.7308 495.57 88.6586 497.166 89.8739Z" stroke="#3F3D56" stroke-miterlimit="10"/>
<path opacity="0.3" d="M509.043 58.0771C509.696 56.3144 510.645 54.8157 511.812 53.7193C512.973 52.6227 514.309 51.9636 515.7 51.8026L515.802 57.7085L517.658 51.9048C519.4 52.2955 521.008 53.4686 522.247 55.2545C523.492 57.0405 524.309 59.3469 524.581 61.8409C524.847 64.3351 524.556 66.8873 523.752 69.1294C522.942 71.3722 521.661 73.1884 520.083 74.316C518.511 75.4442 516.727 75.8253 514.992 75.405C513.251 74.9847 511.655 73.7843 510.428 71.9767C509.201 70.1698 508.403 67.8499 508.155 65.3512C507.901 62.8526 508.215 60.3055 509.043 58.0771Z" fill="#57B894"/>
<path opacity="0.3" d="M509.696 56.0859C510.349 54.3232 511.304 52.8245 512.465 51.7279C513.632 50.6315 514.968 49.9723 516.352 49.8113L516.461 55.7172L518.317 49.9135C520.052 50.3043 521.66 51.4773 522.906 53.2632C524.151 55.0492 524.967 57.3557 525.24 59.8497C525.506 62.3438 525.215 64.896 524.411 67.1382C523.601 69.3809 522.319 71.1972 520.741 72.3248C519.17 73.453 517.38 73.8341 515.645 73.4138C513.91 72.9935 512.314 71.793 511.086 69.9855C509.853 68.1786 509.055 65.858 508.807 63.36C508.559 60.8615 508.874 58.3142 509.696 56.0859Z" stroke="#3F3D56" stroke-miterlimit="10"/>
<path opacity="0.3" d="M509.049 121.645C510.851 123.017 512.937 123.391 514.92 122.696C516.903 122.002 518.632 120.286 519.792 117.877C520.947 115.468 521.443 112.534 521.183 109.633C520.929 106.733 519.937 104.07 518.396 102.151L516.975 106.611L516.866 100.635C516.86 100.629 516.854 100.624 516.848 100.619C515.881 99.886 514.829 99.4309 513.741 99.2814C512.659 99.1314 511.558 99.2895 510.518 99.7472C509.473 100.204 508.505 100.951 507.665 101.946C506.825 102.941 506.123 104.163 505.615 105.544C505.102 106.924 504.787 108.436 504.678 109.992C504.576 111.548 504.684 113.119 505.005 114.614C505.325 116.109 505.845 117.5 506.54 118.706C507.23 119.912 508.088 120.911 509.049 121.645Z" fill="#57B894"/>
<path opacity="0.3" d="M509.648 119.614C511.449 120.987 513.541 121.361 515.518 120.666C517.501 119.972 519.236 118.256 520.391 115.847C521.546 113.438 522.041 110.503 521.788 107.603C521.528 104.703 520.536 102.039 518.994 100.12L517.574 104.58L517.465 98.6052C517.459 98.599 517.453 98.594 517.447 98.589C516.479 97.8556 515.428 97.4004 514.339 97.251C513.257 97.1009 512.163 97.2591 511.117 97.7167C510.077 98.1737 509.104 98.9209 508.263 99.9159C507.423 100.91 506.728 102.132 506.214 103.513C505.7 104.894 505.386 106.405 505.277 107.962C505.174 109.518 505.283 111.089 505.603 112.584C505.924 114.078 506.444 115.469 507.139 116.676C507.834 117.882 508.687 118.88 509.648 119.614Z" stroke="#3F3D56" stroke-miterlimit="10"/>
<path opacity="0.3" d="M498.554 139.485C498.615 142.214 499.334 144.828 500.579 146.89C501.831 148.951 503.536 150.335 505.41 150.808C507.284 151.282 509.219 150.816 510.881 149.49C512.55 148.164 513.843 146.057 514.551 143.524C515.264 140.99 515.343 138.184 514.781 135.575C514.218 132.967 513.051 130.715 511.468 129.197C509.884 127.679 507.985 126.988 506.087 127.239C504.189 127.49 502.411 128.668 501.051 130.575L503.935 139.224L499.34 134.012C498.778 135.72 498.506 137.597 498.554 139.485Z" fill="#57B894"/>
<path opacity="0.3" d="M499.05 137.992C499.11 140.72 499.823 143.335 501.075 145.396C502.32 147.458 504.025 148.841 505.905 149.315C507.78 149.788 509.714 149.322 511.377 147.996C513.039 146.67 514.339 144.564 515.046 142.03C515.754 139.497 515.838 136.69 515.276 134.082C514.714 131.473 513.541 129.222 511.957 127.704C510.373 126.186 508.475 125.494 506.582 125.745C504.684 125.996 502.907 127.174 501.54 129.082L504.424 137.731L499.836 132.519C499.267 134.227 499.001 136.103 499.05 137.992Z" stroke="#3F3D56" stroke-miterlimit="10"/>
</g>
<g opacity="0.3">
<path opacity="0.3" d="M67.6283 103.349C68.0793 103.825 68.5793 104.088 69.0897 104.115C69.6005 104.142 70.1067 103.934 70.5697 103.505C71.0327 103.078 71.4391 102.442 71.7574 101.649C72.0753 100.855 72.2962 99.9265 72.403 98.9352C72.5094 97.9434 72.4982 96.916 72.3704 95.9347C72.243 94.9528 72.0023 94.0431 71.6675 93.2779C71.3328 92.5127 70.9127 91.9118 70.4411 91.5233C69.9695 91.1348 69.4587 90.9692 68.9495 91.0395L68.7933 94.3993L68.2021 91.3166C67.3702 91.8253 66.6735 92.9691 66.2662 94.4964C66.1219 95.0313 66.0163 95.6035 65.9533 96.1969C65.8028 97.5885 65.8848 99.0399 66.1874 100.331C66.4896 101.621 66.9954 102.681 67.6283 103.349Z" fill="#57B894"/>
<path opacity="0.3" d="M68.8032 143.15C68.7249 140.234 70.1204 138.06 71.4379 136.763C72.7559 135.466 74.2738 134.253 74.8815 131.594C75.7546 127.772 74.2606 123.627 73.1195 120.093C72.2731 117.471 71.5859 114.659 71.0731 111.717C70.8674 110.536 70.688 109.313 70.7008 108.064C70.7194 106.267 71.1308 104.588 71.5389 102.983C72.8994 97.6358 74.3229 92.3545 75.8091 87.1393" stroke="#3F3D56" stroke-miterlimit="10"/>
<path opacity="0.3" d="M67.8246 102.528C68.2752 103.005 68.7757 103.267 69.286 103.294C69.7964 103.321 70.3031 103.113 70.766 102.684C71.229 102.256 71.6355 101.621 71.9537 100.827C72.2716 100.035 72.4925 99.1052 72.5989 98.114C72.7057 97.1221 72.6945 96.0954 72.5667 95.1135C72.4394 94.1316 72.1986 93.2225 71.8639 92.4567C71.5287 91.6914 71.109 91.0906 70.6374 90.7021C70.1658 90.3142 69.655 90.1485 69.1455 90.2189L68.9896 93.5781L68.3985 90.4954C67.5661 91.0041 66.8698 92.1478 66.4621 93.6752C66.3182 94.21 66.2127 94.7822 66.1496 95.3756C65.9992 96.7672 66.0812 98.2186 66.3834 99.5093C66.686 100.8 67.1918 101.86 67.8246 102.528Z" stroke="#3F3D56" stroke-miterlimit="10"/>
<path opacity="0.3" d="M72.5386 85.0447C72.7979 84.0753 73.1759 83.2515 73.6377 82.6488C74.0998 82.0455 74.6304 81.6831 75.1816 81.5947L75.224 84.8424L75.9599 81.6507C76.6504 81.8655 77.2886 82.5106 77.7825 83.4925C78.2764 84.475 78.6 85.7427 78.7072 87.1144C78.8144 88.4854 78.6993 89.8889 78.3786 91.1217C78.0579 92.3545 77.5483 93.3533 76.9229 93.9734C76.2975 94.5936 75.5893 94.8034 74.9004 94.5724C74.2111 94.3414 73.5771 93.6808 73.089 92.6876C72.6013 91.6939 72.2851 90.4181 72.1861 89.0446C72.0872 87.6704 72.2104 86.2701 72.5386 85.0447Z" fill="#57B894"/>
<path opacity="0.3" d="M72.7996 83.9501C73.0589 82.9807 73.4369 82.1569 73.8987 81.5536C74.3608 80.9509 74.8914 80.5885 75.4426 80.5001L75.485 83.7471L76.2209 80.5561C76.9114 80.7709 77.5496 81.416 78.0435 82.3979C78.5374 83.3798 78.861 84.6481 78.9682 86.0192C79.0754 87.3908 78.9603 88.7943 78.6396 90.0271C78.3189 91.2599 77.8089 92.2587 77.1839 92.8788C76.5585 93.499 75.8503 93.7088 75.1614 93.4772C74.4721 93.2462 73.8377 92.5862 73.35 91.5924C72.8618 90.5987 72.5457 89.3229 72.4467 87.9494C72.3482 86.5758 72.4714 85.1749 72.7996 83.9501Z" stroke="#3F3D56" stroke-miterlimit="10"/>
<path opacity="0.3" d="M72.5419 119.997C73.2568 120.751 74.0866 120.957 74.8728 120.575C75.6594 120.193 76.3474 119.25 76.8059 117.925C77.2647 116.6 77.4618 114.987 77.3599 113.392C77.2577 111.798 76.864 110.333 76.253 109.278L75.6878 111.731L75.6449 108.445C75.6425 108.442 75.6396 108.439 75.6371 108.436C75.2545 108.031 74.8357 107.78 74.4045 107.697C73.9733 107.614 73.5379 107.7 73.1236 107.951C72.7093 108.202 72.3234 108.613 71.9891 109.16C71.6547 109.708 71.3781 110.38 71.1745 111.14C70.9712 111.899 70.8451 112.731 70.8039 113.588C70.7626 114.444 70.8063 115.308 70.9333 116.131C71.0607 116.954 71.268 117.718 71.5438 118.382C71.8201 119.045 72.1589 119.594 72.5419 119.997Z" fill="#57B894"/>
<path opacity="0.3" d="M72.7798 118.88C73.4947 119.635 74.3245 119.841 75.1111 119.459C75.8973 119.076 76.5853 118.133 77.0442 116.809C77.5026 115.484 77.6997 113.871 77.5978 112.276C77.496 110.681 77.1019 109.217 76.4909 108.162L75.9257 110.614L75.8828 107.328C75.8804 107.325 75.8779 107.322 75.875 107.32C75.4928 106.916 75.074 106.665 74.6432 106.583C74.212 106.5 73.777 106.587 73.3627 106.838C72.9484 107.089 72.5634 107.5 72.229 108.047C71.8951 108.594 71.6185 109.267 71.4152 110.026C71.2116 110.785 71.0858 111.617 71.0442 112.473C71.003 113.328 71.0467 114.192 71.1737 115.014C71.3002 115.837 71.5076 116.601 71.783 117.265C72.0588 117.928 72.3972 118.477 72.7798 118.88Z" stroke="#3F3D56" stroke-miterlimit="10"/>
<path opacity="0.3" d="M68.3757 129.806C68.4013 131.306 68.6853 132.744 69.1808 133.877C69.6764 135.011 70.3533 135.771 71.0978 136.032C71.8424 136.293 72.6096 136.036 73.2704 135.307C73.9313 134.578 74.4458 133.42 74.7273 132.027C75.0093 130.633 75.0411 129.09 74.818 127.656C74.5946 126.222 74.13 124.984 73.5017 124.149C72.873 123.315 72.1194 122.934 71.3666 123.073C70.6138 123.21 69.9077 123.858 69.3668 124.907L70.5116 129.663L68.6886 126.797C68.4643 127.736 68.3572 128.768 68.3757 129.806Z" fill="#57B894"/>
<path opacity="0.3" d="M68.5715 128.985C68.5967 130.485 68.8811 131.923 69.3767 133.056C69.8722 134.19 70.5491 134.951 71.2936 135.211C72.0382 135.471 72.8054 135.215 73.4662 134.486C74.1271 133.756 74.6412 132.598 74.9231 131.206C75.2047 129.813 75.2369 128.269 75.0138 126.835C74.7904 125.401 74.3258 124.163 73.6971 123.328C73.0688 122.494 72.3152 122.113 71.5624 122.251C70.8092 122.389 70.1035 123.037 69.5626 124.086L70.707 128.841L68.8844 125.976C68.6602 126.914 68.553 127.947 68.5715 128.985Z" stroke="#3F3D56" stroke-miterlimit="10"/>
</g>
<g opacity="0.3">
<path opacity="0.3" d="M486.184 113.168C485.272 113.684 484.251 113.968 483.222 113.997C482.184 114.026 481.155 113.8 480.218 113.337C479.272 112.873 478.452 112.184 477.808 111.325C477.155 110.466 476.711 109.46 476.494 108.386C476.276 107.312 476.301 106.199 476.561 105.136C476.82 104.072 477.306 103.086 477.983 102.257C478.67 101.428 479.515 100.778 480.477 100.357C481.431 99.9358 482.469 99.7565 483.506 99.8325L483.824 103.472L485.021 100.133C486.711 100.684 488.126 101.923 488.954 103.577C489.247 104.157 489.456 104.777 489.582 105.419C489.891 106.927 489.724 108.499 489.113 109.897C488.494 111.295 487.473 112.443 486.184 113.168Z" fill="#FF6584"/>
<path opacity="0.3" d="M483.799 156.283C483.958 153.124 481.13 150.77 478.452 149.364C475.774 147.958 472.695 146.645 471.465 143.764C469.691 139.624 472.72 135.134 475.038 131.306C476.762 128.466 478.151 125.42 479.197 122.231C479.607 120.953 479.975 119.628 479.95 118.276C479.908 116.328 479.08 114.509 478.251 112.771C475.49 106.979 472.595 101.257 469.582 95.6072" stroke="#3F3D56" stroke-miterlimit="10"/>
<path opacity="0.3" d="M485.791 112.278C484.871 112.794 483.858 113.078 482.82 113.107C481.783 113.136 480.753 112.91 479.816 112.447C478.879 111.983 478.05 111.295 477.406 110.436C476.762 109.577 476.31 108.57 476.101 107.496C475.883 106.422 475.9 105.309 476.159 104.246C476.419 103.182 476.912 102.197 477.59 101.368C478.268 100.539 479.122 99.8879 480.076 99.467C481.038 99.0461 482.076 98.8668 483.105 98.9434L483.423 102.582L484.628 99.2428C486.31 99.7939 487.724 101.033 488.553 102.688C488.845 103.267 489.063 103.887 489.188 104.53C489.498 106.038 489.331 107.609 488.712 109.008C488.101 110.406 487.071 111.554 485.791 112.278Z" stroke="#3F3D56" stroke-miterlimit="10"/>
<path opacity="0.3" d="M476.219 93.3384C475.692 92.2886 474.923 91.3957 473.985 90.7426C473.048 90.0894 471.977 89.6971 470.856 89.6013L470.772 93.1192L469.274 89.6623C467.877 89.8945 466.58 90.5937 465.576 91.6572C464.571 92.7213 463.919 94.0949 463.701 95.5805C463.484 97.0661 463.718 98.586 464.362 99.9215C465.015 101.257 466.053 102.339 467.324 103.011C468.588 103.683 470.027 103.91 471.425 103.659C472.822 103.409 474.111 102.694 475.107 101.618C476.094 100.541 476.738 99.1594 476.939 97.6713C477.14 96.1832 476.889 94.6658 476.219 93.3384Z" fill="#FF6584"/>
<path opacity="0.3" d="M475.691 92.1522C475.163 91.1024 474.394 90.2096 473.456 89.557C472.519 88.9039 471.44 88.511 470.327 88.4151L470.235 91.933L468.745 88.4761C467.339 88.709 466.05 89.4076 465.046 90.4711C464.042 91.5352 463.381 92.9087 463.163 94.3943C462.946 95.88 463.18 97.3998 463.833 98.7354C464.486 100.072 465.523 101.153 466.787 101.825C468.059 102.497 469.498 102.724 470.896 102.474C472.293 102.223 473.582 101.508 474.569 100.431C475.565 99.3555 476.201 97.9733 476.402 96.4852C476.603 94.9971 476.352 93.4797 475.691 92.1522Z" stroke="#3F3D56" stroke-miterlimit="10"/>
<path opacity="0.3" d="M476.21 131.201C474.762 132.019 473.08 132.242 471.482 131.828C469.883 131.414 468.486 130.392 467.557 128.957C466.628 127.522 466.226 125.774 466.436 124.047C466.636 122.319 467.44 120.733 468.678 119.59L469.825 122.246L469.917 118.687C469.917 118.684 469.925 118.68 469.925 118.678C470.703 118.24 471.557 117.969 472.427 117.879C473.306 117.789 474.184 117.883 475.03 118.156C475.866 118.428 476.653 118.873 477.331 119.465C478.009 120.058 478.569 120.786 478.979 121.609C479.398 122.431 479.649 123.332 479.732 124.259C479.816 125.187 479.732 126.123 479.473 127.013C479.214 127.904 478.795 128.733 478.235 129.452C477.674 130.17 476.988 130.765 476.21 131.201Z" fill="#FF6584"/>
<path opacity="0.3" d="M475.732 129.992C474.276 130.81 472.594 131.032 470.996 130.618C469.398 130.204 468 129.183 467.072 127.748C466.143 126.313 465.741 124.565 465.95 122.837C466.16 121.11 466.954 119.524 468.193 118.38L469.339 121.037L469.431 117.478C469.431 117.474 469.44 117.471 469.448 117.469C470.218 117.031 471.071 116.76 471.95 116.67C472.82 116.581 473.707 116.675 474.544 116.947C475.389 117.219 476.168 117.664 476.845 118.256C477.523 118.849 478.084 119.578 478.502 120.4C478.912 121.223 479.163 122.123 479.255 123.05C479.339 123.978 479.247 124.913 478.988 125.804C478.728 126.695 478.31 127.523 477.749 128.242C477.188 128.96 476.502 129.555 475.732 129.992Z" stroke="#3F3D56" stroke-miterlimit="10"/>
<path opacity="0.3" d="M484.669 141.827C484.619 143.453 484.042 145.009 483.038 146.238C482.025 147.466 480.653 148.29 479.147 148.572C477.632 148.854 476.076 148.577 474.737 147.786C473.39 146.996 472.352 145.742 471.775 144.233C471.206 142.724 471.139 141.053 471.591 139.498C472.042 137.945 472.988 136.604 474.268 135.7C475.54 134.796 477.071 134.383 478.594 134.533C480.126 134.682 481.557 135.384 482.653 136.52L480.335 141.672L484.033 138.568C484.485 139.584 484.703 140.703 484.669 141.827Z" fill="#FF6584"/>
<path opacity="0.3" d="M484.268 140.938C484.217 142.563 483.64 144.12 482.636 145.348C481.632 146.576 480.259 147.4 478.745 147.682C477.23 147.964 475.674 147.687 474.335 146.897C472.996 146.107 471.95 144.852 471.381 143.343C470.804 141.834 470.745 140.163 471.197 138.609C471.649 137.055 472.594 135.714 473.866 134.81C475.138 133.906 476.67 133.494 478.201 133.643C479.732 133.793 481.163 134.494 482.259 135.631L479.933 140.782L483.64 137.678C484.092 138.695 484.31 139.813 484.268 140.938Z" stroke="#3F3D56" stroke-miterlimit="10"/>
</g>
</g>
<defs>
<clipPath id="clip0">
<rect width="545" height="165" fill="white"/>
</clipPath>
</defs>
</svg>
